<svg width="16" height="16" viewBox="0 0 16 16" fill="none" xmlns="http://www.w3.org/2000/svg">
<path d="M8.00001 4.2999L13.4 9.6999L12.7 10.3999L8.00001 5.6999L3.40001 10.2999L2.60001 9.5999L8.00001 4.2999ZM8.00001 2.8999L7.30001 3.5999L1.90001 8.8999L1.20001 9.5999L1.90001 10.2999L2.60001 10.9999L3.30001 11.6999L4.00001 10.9999L8.00001 7.0999L11.9 10.9999L12.6 11.6999L13.3 10.9999L14 10.2999L14.7 9.5999L14 8.8999L8.70001 3.5999L8.00001 2.8999Z" fill="#FF0000" fill-opacity="0.3"/>
<path d="M12.6 10.4001L7.99998 5.70005L3.39998 10.4001L2.59998 9.60005L7.99998 4.30005L13.4 9.60005L12.6 10.4001Z" fill="black"/>
</svg>
