<svg width="16" height="16" viewBox="0 0 16 16" fill="none" xmlns="http://www.w3.org/2000/svg">
<path d="M12.6 5.59995L13.3 6.29995L8.00001 11.6999L2.60001 6.39995L3.30001 5.69995L8.00001 10.2999L12.6 5.59995ZM12.6 4.19995L11.9 4.89995L8.00001 8.89995L4.10001 4.89995L3.40001 4.19995L2.60001 4.89995L1.90001 5.59995L1.20001 6.39995L1.90001 7.09995L7.30001 12.4999L8.00001 13.0999L8.70001 12.3999L14.1 6.99995L14.8 6.29995L14.1 5.59995L13.4 4.89995L12.6 4.19995Z" fill="#FF0000" fill-opacity="0.3"/>
<path d="M7.99998 11.7001L2.59998 6.4001L3.39998 5.6001L7.99998 10.3001L12.6 5.6001L13.4 6.4001L7.99998 11.7001Z" fill="black"/>
</svg>
