<svg width="16" height="16" viewBox="0 0 16 16" fill="none" xmlns="http://www.w3.org/2000/svg">
<path d="M6.40001 2.59995L11.7 7.99995L6.30001 13.3999L5.60001 12.6999L10.3 7.99995L5.60001 3.39995L6.40001 2.59995ZM6.40001 1.19995L5.60001 1.89995L4.90001 2.59995L4.20001 3.39995L4.90001 4.09995L8.90001 7.99995L5.00001 11.8999L4.30001 12.5999L5.00001 13.2999L5.70001 13.9999L6.40001 14.6999L7.10001 13.9999L12.5 8.59995L13.1 7.99995L12.4 7.29995L7.10001 1.89995L6.40001 1.19995Z" fill="#FF0000" fill-opacity="0.3"/>
<path d="M6.39998 13.4001L5.59998 12.6001L10.3 8.0001L5.59998 3.4001L6.39998 2.6001L11.7 8.0001L6.39998 13.4001Z" fill="black"/>
</svg>
