<svg width="16" height="16" viewBox="0 0 16 16" fill="none" xmlns="http://www.w3.org/2000/svg">
<path d="M9.60003 2.59995L10.3 3.29995L5.70002 7.99995L10.3 12.5999L9.60003 13.2999L4.30002 7.99995L9.60003 2.59995ZM9.60003 1.19995L8.90002 1.89995L3.60002 7.29995L2.90002 7.99995L3.60002 8.69995L9.00002 14.0999L9.70002 14.7999L10.4 14.0999L11.1 13.3999L11.8 12.6999L11.1 11.9999L7.10002 7.99995L11 4.09995L11.7 3.39995L11 2.69995L10.3 1.99995L9.60003 1.19995Z" fill="#FF0000" fill-opacity="0.3"/>
<path d="M9.59999 13.4001L4.29999 8.0001L9.59999 2.6001L10.4 3.4001L5.69999 8.0001L10.4 12.6001L9.59999 13.4001Z" fill="black"/>
</svg>
