<svg width="16" height="16" viewBox="0 0 16 16" fill="none" xmlns="http://www.w3.org/2000/svg">
<path d="M12.8999 14H3.09996C2.49996 14 1.99996 13.5 2.09996 12.9L2.79996 6.9C2.89996 6.4 3.39997 6 3.89997 6H12.1999C12.6999 6 13.0999 6.4 13.1999 6.9L13.8999 12.9C13.8999 13.5 13.4999 14 12.8999 14Z" fill="#FF0000" fill-opacity="0.3"/>
<path d="M14.8999 12.8L14.1999 6.8C14.0999 5.8 13.1999 5.1 12.1999 5.1H10.9999V4C10.9999 2.9 10.0999 2 8.99992 2H6.99992C5.89992 2 4.99992 2.9 4.99992 4V5H3.89992C2.89992 5 2.09992 5.7 1.89992 6.7L1.19992 12.7C1.09992 13.3 1.29992 13.8 1.69992 14.3C1.99992 14.8 2.59992 15 3.09992 15H12.7999C13.3999 15 13.8999 14.8 14.2999 14.3C14.6999 13.9 14.8999 13.3 14.8999 12.8ZM5.99992 4C5.99992 3.4 6.39992 3 6.99992 3H8.99992C9.59992 3 9.99992 3.4 9.99992 4V5H5.99992V4ZM5.99992 7V6H9.99992V7H5.99992ZM12.8999 14H3.09992C2.49992 14 1.99992 13.5 2.09992 12.9L2.79992 6.9C2.89992 6.4 3.39992 6 3.89992 6H4.99992V9H10.9999V6H12.0999C12.5999 6 12.9999 6.4 13.0999 6.9L13.7999 12.9C13.8999 13.5 13.4999 14 12.8999 14Z" fill="black"/>
</svg>
