<svg width="16" height="16" viewBox="0 0 16 16" fill="none" xmlns="http://www.w3.org/2000/svg">
<path d="M9.41179 13.6889C12.4458 12.3568 14.4554 10.2521 13.9003 8.98796C13.3453 7.72378 10.4358 7.77885 7.40179 9.11096C4.36776 10.4431 2.35815 12.5478 2.91319 13.8119C3.46824 15.0761 6.37776 15.0211 9.41179 13.6889Z" fill="#FF0000" fill-opacity="0.3"/>
<path d="M14.9001 9.1C14.7001 8.6 14.4001 8.3 13.9001 8.1L13.7001 8C12.4001 7.6 12.1001 6.7 11.6001 5.6C10.2001 2.6 8.90007 1.8 7.30007 1.6C6.80007 1.5 6.40007 1.5 5.90007 1.6C5.80007 1.2 5.40007 1 5.00007 1C4.50007 1 4.00007 1.5 4.00007 2C4.00007 2.1 4.00007 2.2 4.10007 2.3C3.60007 2.6 3.20007 3 2.80007 3.5C1.50007 5 2.00007 7.3 2.50007 9.2C3.00007 11.1 2.90007 11.1 2.20007 12.3C1.90007 12.9 2.00007 13.4 2.10007 13.7C2.50007 14.6 3.60007 15 5.10007 15C6.40007 15 8.00007 14.7 9.50007 14.2C12.1001 13.3 14.1001 11.9 14.7001 10.6C15.1001 9.9 15.0001 9.4 14.9001 9.1ZM13.6001 10C13.2001 10.8 11.7001 12 9.10007 12.9C5.80007 14.1 3.50007 13.7 3.30007 13.2C3.30007 13.1 3.30007 13 3.40007 12.9C3.80007 12.1 5.30007 10.9 7.90007 10C9.50007 9.4 10.9001 9.2 11.9001 9.2C12.9001 9.2 13.6001 9.4 13.7001 9.7C13.7001 9.7 13.7001 9.9 13.6001 10Z" fill="black"/>
<path d="M7.50007 10.8C6.60007 11.1 5.80007 11.5 5.20007 12C5.70007 12.4 6.30007 12.6 7.00007 12.6C8.50007 12.6 9.70007 11.6 9.70007 10.4C9.00007 10.3 8.30007 10.5 7.50007 10.8Z" fill="black"/>
</svg>
