<svg width="16" height="16" viewBox="0 0 16 16" fill="none" xmlns="http://www.w3.org/2000/svg">
<g clip-path="url(#clip0_7_1157)">
<path d="M8 0C3.6 0 0 3.6 0 8.1C0 11.9 2.6 15.1 6 16C6 15.1 6 13.9 6 13.5C3.7 14 3.2 12.5 3.2 12.5C2.8 11.5 2.3 11.3 2.3 11.3C1.5 10.8 2.4 10.8 2.4 10.8C3.2 10.9 3.7 11.7 3.7 11.7C4.4 13 5.6 12.6 6 12.4C6.1 11.9 6.3 11.5 6.5 11.3C4.7 11 2.8 10.3 2.8 7.1C2.8 6.2 3.1 5.4 3.7 4.8C3.5 4.6 3.3 3.8 3.7 2.6C3.7 2.6 4.4 2.4 6 3.5C6.7 3.3 7.4 3.2 8.1 3.2C8.8 3.2 9.5 3.3 10.2 3.5C11.8 2.4 12.5 2.6 12.5 2.6C13 3.8 12.7 4.6 12.6 4.8C13.1 5.4 13.5 6.1 13.5 7.1C13.5 10.3 11.6 11.1 9.7 11.3C10 11.6 10.3 12.1 10.3 12.9C10.3 13.5 10.3 15 10.3 16.1C13.5 15 16 11.9 16 8.1C16 3.6 12.4 0 8 0Z" fill="black"/>
</g>
<defs>
<clipPath id="clip0_7_1157">
<rect width="16" height="16" fill="white"/>
</clipPath>
</defs>
</svg>
