<svg width="16" height="16" viewBox="0 0 16 16" fill="none" xmlns="http://www.w3.org/2000/svg">
<g clip-path="url(#clip0_7_1517)">
<path d="M15 6H1V15H15V6Z" fill="#FF0000" fill-opacity="0.3"/>
<path d="M14 2H13V0H12V2H10V0H9V2H7V0H6V2H4V0H3V2H2C0.9 2 0 2.9 0 4V6V7V14C0 15.1 0.9 16 2 16H14C15.1 16 16 15.1 16 14V7V6V4C16 2.9 15.1 2 14 2ZM15 14C15 14.6 14.6 15 14 15H2C1.4 15 1 14.6 1 14V7H15V14ZM1 6V4C1 3.4 1.4 3 2 3H3V4H4V3H6V4H7V3H9V4H10V3H12V4H13V3H14C14.6 3 15 3.4 15 4V6H1Z" fill="black"/>
</g>
<defs>
<clipPath id="clip0_7_1517">
<rect width="16" height="16" fill="white"/>
</clipPath>
</defs>
</svg>
