<svg width="16" height="16" viewBox="0 0 16 16" fill="none" xmlns="http://www.w3.org/2000/svg">
<path d="M13 3H3V5H13V3Z" fill="#FF0000" fill-opacity="0.3"/>
<path d="M13 11H3V13H13V11Z" fill="#FF0000" fill-opacity="0.3"/>
<path d="M14 6V1H13V5H3V1H2V6H14Z" fill="black"/>
<path d="M3 7H1V9H3V7Z" fill="black"/>
<path d="M6 7H4V9H6V7Z" fill="black"/>
<path d="M9 7H7V9H9V7Z" fill="black"/>
<path d="M12 7H10V9H12V7Z" fill="black"/>
<path d="M2 10V15H3V11H13V15H14V10H2Z" fill="black"/>
<path d="M15 7H13V9H15V7Z" fill="black"/>
</svg>
