<svg width="16" height="16" viewBox="0 0 16 16" fill="none" xmlns="http://www.w3.org/2000/svg">
<path d="M5 14C3.9 14 3 13.1 3 12V10C3 8.9 3.9 8 5 8H9.7C9.3 7.3 8.7 6.7 7.9 6.6C7.6 6.5 7.3 6.2 7.2 5.9C7.1 5.6 7.2 5.2 7.5 5C7.9 4.6 8 3.7 8 3C8 1.7 7.3 1 6 1C4.7 1 4 1.8 4 3C4 3.7 4 4.5 4.5 5C4.7 5.2 4.8 5.6 4.8 5.9C4.7 6.2 4.4 6.5 4.1 6.6C2.9 6.8 2 7.9 2 9.2V14C2 14.6 2.4 15 2.9 15H10V14H5Z" fill="#FF0000" fill-opacity="0.3"/>
<path d="M13 8H10.8L10.6 7.6C10.1 6.6 9.3 5.9 8.3 5.7C9 4.9 9 3.7 9 3C9 1.2 7.8 0 6 0C4.2 0 3 1.2 3 3C3 3.7 3 4.8 3.7 5.6C2.1 6.1 1 7.6 1 9.2V14C1 15.1 1.8 16 2.9 16H11V14H13C14.1 14 15 13.1 15 12V10C15 8.9 14.1 8 13 8ZM10 15H2.9C2.4 15 2 14.6 2 14.1V9.2C2 7.9 2.9 6.8 4.1 6.5C4.4 6.4 4.7 6.2 4.8 5.8C4.9 5.5 4.8 5.1 4.5 4.9C4.1 4.6 4 3.7 4 3C4 1.7 4.7 1 6 1C7.3 1 8 1.8 8 3C8 3.7 8 4.5 7.5 5C7.2 5.2 7.1 5.6 7.2 5.9C7.3 6.2 7.5 6.5 7.9 6.6C8.7 6.7 9.3 7.3 9.7 8H5C3.9 8 3 8.9 3 10V12C3 13.1 3.9 14 5 14H10V15ZM14 12C14 12.6 13.6 13 13 13H5C4.4 13 4 12.6 4 12V10C4 9.4 4.4 9 5 9H13C13.6 9 14 9.4 14 10V12Z" fill="black"/>
<path d="M6 12C6.55228 12 7 11.5523 7 11C7 10.4477 6.55228 10 6 10C5.44772 10 5 10.4477 5 11C5 11.5523 5.44772 12 6 12Z" fill="black"/>
<path d="M9 12C9.55228 12 10 11.5523 10 11C10 10.4477 9.55228 10 9 10C8.44772 10 8 10.4477 8 11C8 11.5523 8.44772 12 9 12Z" fill="black"/>
<path d="M12 12C12.5523 12 13 11.5523 13 11C13 10.4477 12.5523 10 12 10C11.4477 10 11 10.4477 11 11C11 11.5523 11.4477 12 12 12Z" fill="black"/>
</svg>
