<svg width="16" height="16" viewBox="0 0 16 16" fill="none" xmlns="http://www.w3.org/2000/svg">
<g clip-path="url(#clip0_7_1312)">
<path d="M7.6 9.1C7.3 9 7 8.7 6.9 8.3C6.8 7.9 6.9 7.6 7.2 7.3C7.7 6.9 8 6.2 8 5.5C8 4.1 6.9 3 5.5 3C4.1 3 3 4.1 3 5.5C3 6.2 3.3 6.9 3.8 7.4C4.1 7.7 4.2 8 4.1 8.4C4 8.7 3.7 9 3.4 9.1C2 9.4 1 10.6 1 12V14C1 14.6 1.4 15 2 15H10V12C10 10.6 9 9.4 7.6 9.1Z" fill="#FF0000" fill-opacity="0.3"/>
<path d="M7.9 8.1C8.6 7.4 9 6.5 9 5.5C9 3.6 7.4 2 5.5 2C3.6 2 2 3.6 2 5.5C2 6.5 2.4 7.4 3.1 8.1C1.3 8.5 0 10.1 0 12V14C0 15.1 0.9 16 2 16H11V12C11 10.1 9.7 8.5 7.9 8.1ZM10 15H2C1.4 15 1 14.6 1 14V12C1 10.6 2 9.4 3.4 9.1C3.7 9 4 8.7 4.1 8.3C4.2 7.9 4.1 7.6 3.8 7.3C3.3 6.9 3 6.2 3 5.5C3 4.1 4.1 3 5.5 3C6.9 3 8 4.1 8 5.5C8 6.2 7.7 6.9 7.2 7.4C6.9 7.6 6.8 8 6.9 8.3C7 8.7 7.3 9 7.6 9.1C9 9.4 10 10.6 10 12V15Z" fill="black"/>
<path d="M16 9H12V10H16V9Z" fill="black"/>
<path d="M16 0H10V1H16V0Z" fill="black"/>
<path d="M16 6H10V7H16V6Z" fill="black"/>
<path d="M16 3H10V4H16V3Z" fill="black"/>
</g>
<defs>
<clipPath id="clip0_7_1312">
<rect width="16" height="16" fill="white"/>
</clipPath>
</defs>
</svg>
