<svg width="16" height="16" viewBox="0 0 16 16" fill="none" xmlns="http://www.w3.org/2000/svg">
<g clip-path="url(#clip0_7_1338)">
<path d="M8 10V3H6V5.8C5.6 5.3 5.1 5 4.5 5C3.4 5 2.6 5.9 2.6 7.1C2.6 7.7 2.8 8.3 3.2 8.6C3.4 8.8 3.5 9.1 3.4 9.4C3.3 9.8 3.1 10 2.8 10.1C1.8 10.3 1 11.3 1 12.5V14.2C1 14.6 1.3 15 1.8 15H8V12.5C8 11.9 7.8 11.4 7.5 11H12V10H8Z" fill="#FF0000" fill-opacity="0.3"/>
<path d="M8 0V2H5V4.1C4.8 4 4.7 4 4.5 4C2.9 4 1.6 5.4 1.6 7.1C1.6 7.9 1.9 8.6 2.4 9.2C1 9.6 0 11 0 12.5V14.2C0 15.2 0.8 16 1.8 16H9V12.5C9 12.3 9 12.2 9 12H13V10H16V0H8ZM8 15H1.8C1.3 15 1 14.6 1 14.2V12.5C1 11.3 1.8 10.3 2.8 10.1C3.1 10 3.3 9.8 3.4 9.5C3.5 9.2 3.4 8.9 3.2 8.7C2.8 8.2 2.6 7.7 2.6 7.1C2.6 5.9 3.4 5 4.5 5C5.6 5 6.4 5.9 6.4 7.1C6.4 7.7 6.2 8.3 5.8 8.6C5.6 8.8 5.5 9.2 5.6 9.5C5.7 9.8 5.9 10 6.2 10.1C7.2 10.3 8 11.3 8 12.5V15ZM12 11H8.7C8.3 10.1 7.6 9.5 6.7 9.2C7.2 8.6 7.5 7.9 7.5 7.1C7.4 6 6.9 5 6 4.4V3H8V10H12V11ZM15 9H9V1H15V9Z" fill="black"/>
<path d="M14 2H10V3H14V2Z" fill="black"/>
<path d="M14 4H10V5H14V4Z" fill="black"/>
<path d="M12 6H10V7H12V6Z" fill="black"/>
<path d="M14 6H13V7H14V6Z" fill="black"/>
</g>
<defs>
<clipPath id="clip0_7_1338">
<rect width="16" height="16" fill="white"/>
</clipPath>
</defs>
</svg>
