<svg width="16" height="16" viewBox="0 0 16 16" fill="none" xmlns="http://www.w3.org/2000/svg">
<path d="M8 0V2H5V5.1C4.8 5 4.7 5 4.5 5C3.4 5 2.6 5.9 2.6 7.1C2.6 7.7 2.8 8.3 3.2 8.6C3.4 8.8 3.5 9.1 3.4 9.4C3.3 9.8 3.1 10 2.8 10.1C1.8 10.3 1 11.3 1 12.5V14.2C1 14.6 1.3 15 1.8 15H8V12.5C8 12.3 8 12.2 7.9 12H13V10H16V0H8ZM12 11H7.5C7.2 10.5 6.7 10.2 6.1 10.1C5.9 10 5.7 9.8 5.6 9.5C5.5 9.2 5.6 8.9 5.8 8.7C6.2 8.3 6.4 7.8 6.4 7.2C6.4 6.7 6.2 6.2 6 5.9V3H8V10H12V11ZM15 9H9V1H15V9Z" fill="black"/>
<path d="M14 2H10V3H14V2Z" fill="black"/>
<path d="M14 4H10V5H14V4Z" fill="black"/>
<path d="M12 6H10V7H12V6Z" fill="black"/>
<path d="M14 6H13V7H14V6Z" fill="black"/>
</svg>
