<svg width="16" height="16" viewBox="0 0 16 16" fill="none" xmlns="http://www.w3.org/2000/svg">
<path d="M15 1H1C0.4 1 0 1.4 0 2V14C0 14.6 0.4 15 1 15H15C15.6 15 16 14.6 16 14V2C16 1.4 15.6 1 15 1ZM15 14H1V2H15V14Z" fill="black"/>
<path d="M5 3H2V5H5V3Z" fill="black"/>
<path d="M5 6H2V13H5V6Z" fill="black"/>
<path d="M10 12H12V11H6V13H10V12Z" fill="black"/>
<path d="M14 3H13V4H14V3Z" fill="black"/>
<path d="M9 3C7.3 3 6 4.3 6 6H9V3Z" fill="black"/>
<path d="M10 10C11.7 10 13 8.7 13 7C13 5.3 11.7 4 10 4V7H7C7 8.7 8.3 10 10 10Z" fill="black"/>
<path d="M14 13V11H13V12H12V13H14Z" fill="black"/>
</svg>
