<svg width="16" height="16" viewBox="0 0 16 16" fill="none" xmlns="http://www.w3.org/2000/svg">
<path d="M14.4999 4.9999C14.4999 4.8999 14.4999 4.8999 14.4999 4.7999C14.4999 4.7999 14.4999 4.7999 14.4999 4.6999C14.4999 4.5999 14.3999 4.5999 14.3999 4.5999L8.39995 0.599902C8.19995 0.499902 7.99995 0.499902 7.79995 0.599902L1.79995 4.5999L1.69995 4.6999C1.69995 4.6999 1.69995 4.6999 1.69995 4.7999C1.69995 4.7999 1.69995 4.8999 1.69995 4.9999V10.9999C1.69995 11.1999 1.79995 11.2999 1.89995 11.3999L7.89995 15.3999C7.99995 15.3999 8.09995 15.4999 8.09995 15.4999C8.09995 15.4999 8.29995 15.4999 8.29995 15.3999L14.2999 11.3999C14.3999 11.2999 14.4999 11.1999 14.4999 10.9999V4.9999ZM7.99995 1.5999L13.0999 4.9999L7.99995 8.3999L2.89995 4.9999L7.99995 1.5999ZM2.49995 5.8999L7.49995 9.1999V13.9999L2.49995 10.6999V5.8999ZM8.49995 14.0999V9.2999L13.4999 5.9999V10.7999L8.49995 14.0999Z" fill="black"/>
</svg>
