<svg width="16" height="16" viewBox="0 0 16 16" fill="none" xmlns="http://www.w3.org/2000/svg">
<path d="M10 3H4V5H10V3Z" fill="black"/>
<path d="M10 6H4V7H10V6Z" fill="black"/>
<path d="M10 8H4V9H10V8Z" fill="black"/>
<path d="M13 2C13 0.9 12.1 0 11 0H3C1.9 0 1 0.9 1 2V12C1 13.1 1.9 14 3 14H11C12.1 14 13 13.1 13 12V3C13.6 3 14 3.4 14 4V14C14 14.6 13.6 15 13 15H5C4.5 15 4 14.6 4 14H3C3 15.1 3.9 16 5 16H13C14.1 16 15 15.1 15 14V4C15 2.9 14.1 2 13 2ZM12 12C12 12.6 11.6 13 11 13H3C2.4 13 2 12.6 2 12V2C2 1.4 2.4 1 3 1H11C11.6 1 12 1.4 12 2V12Z" fill="black"/>
</svg>
