<svg width="16" height="16" viewBox="0 0 16 16" fill="none" xmlns="http://www.w3.org/2000/svg">
<g clip-path="url(#clip0_7_1393)">
<path d="M8 1C4.1 1 1 4.1 1 8C1 11.9 4.1 15 8 15C11.9 15 15 11.9 15 8C15 4.1 11.9 1 8 1ZM8 12C6.5 12 5.3 10.7 5 9H11C10.7 10.7 9.5 12 8 12Z" fill="#FF0000" fill-opacity="0.3"/>
<path d="M8 0C3.6 0 0 3.6 0 8C0 12.4 3.6 16 8 16C12.4 16 16 12.4 16 8C16 3.6 12.4 0 8 0ZM8 15C4.1 15 1 11.9 1 8C1 4.1 4.1 1 8 1C11.9 1 15 4.1 15 8C15 11.9 11.9 15 8 15Z" fill="black"/>
<path d="M11 8.5H5C4.7 8.5 4.5 8.7 4.5 9C4.5 10.9 6.1 12.5 8 12.5C9.9 12.5 11.5 10.9 11.5 9C11.5 8.7 11.3 8.5 11 8.5ZM8 11.5C6.8 11.5 5.8 10.6 5.5 9.5H10.4C10.2 10.6 9.2 11.5 8 11.5Z" fill="black"/>
<path d="M5 7C5.55228 7 6 6.55228 6 6C6 5.44772 5.55228 5 5 5C4.44772 5 4 5.44772 4 6C4 6.55228 4.44772 7 5 7Z" fill="black"/>
<path d="M11 7C11.5523 7 12 6.55228 12 6C12 5.44772 11.5523 5 11 5C10.4477 5 10 5.44772 10 6C10 6.55228 10.4477 7 11 7Z" fill="black"/>
</g>
<defs>
<clipPath id="clip0_7_1393">
<rect width="16" height="16" fill="white"/>
</clipPath>
</defs>
</svg>
