<svg width="16" height="16" viewBox="0 0 16 16" fill="none" xmlns="http://www.w3.org/2000/svg">
<path d="M14 3H4V10H14V3Z" fill="#FF0000" fill-opacity="0.3"/>
<path d="M6 6C6.55228 6 7 5.55228 7 5C7 4.44772 6.55228 4 6 4C5.44772 4 5 4.44772 5 5C5 5.55228 5.44772 6 6 6Z" fill="black"/>
<path d="M9 5L12 9H6L9 5Z" fill="black"/>
<path d="M12 9H13V7L11 4L10 6L12 9Z" fill="black"/>
<path fill-rule="evenodd" clip-rule="evenodd" d="M15 2H3V3.95556L1 4.4L2.8 13.2L13.525 11H15V2ZM14 3V10H4V3H14ZM8.6 11H3.3971L3.6 12L8.6 11ZM3 9.04286L2.2 5.1L3 4.94V9.04286Z" fill="black"/>
</svg>
