<svg width="16" height="16" viewBox="0 0 16 16" fill="none" xmlns="http://www.w3.org/2000/svg">
<path d="M8 1L1 3V13L8 15V1Z" fill="#FF0000" fill-opacity="0.3"/>
<path d="M4.4 9L3.6 10.9H2.4L3.8 8L2.5 5.1H3.8L4.5 6.8C4.5 6.9 4.525 6.975 4.55 7.05C4.575 7.125 4.6 7.2 4.6 7.3C4.6 7.2 4.6 7.1 4.7 6.8L5.4 5.1H6.6L5.2 8L6.6 10.9H5.4L4.6 9C4.6 8.95858 4.58284 8.91716 4.56274 8.86863C4.53431 8.8 4.5 8.71716 4.5 8.6C4.5 8.7 4.5 8.8 4.4 9Z" fill="black"/>
<path fill-rule="evenodd" clip-rule="evenodd" d="M8.6 0.2C8.4 0.1 8.2 0 8 0H7.7L0.7 2C0.3 2.2 0 2.6 0 3V13C0 13.4 0.3 13.8 0.7 14L7.7 16H8C8.2 16 8.4 15.9 8.6 15.8C8.9 15.6 9 15.3 9 15V13H14.3C14.7 13 15 12.7 15 12.4V3.6C15 3.3 14.7 3 14.3 3H9V1C9 0.7 8.9 0.4 8.6 0.2ZM14 12H12V10H14V12ZM11 12V10H9V12H11ZM14 9H12V8H14V9ZM11 9V8H9V9H11ZM14 7H12V6H14V7ZM11 7V6H9V7H11ZM14 5H12V4H14V5ZM11 5V4H9V5H11ZM8 15L1 13V3L8 1V15Z" fill="black"/>
</svg>
