<svg width="16" height="16" viewBox="0 0 16 16" fill="none" xmlns="http://www.w3.org/2000/svg">
<path d="M15 5H1V12H15V5Z" fill="#FF0000" fill-opacity="0.3"/>
<path fill-rule="evenodd" clip-rule="evenodd" d="M6.4 7.3C6.4 7 6.5 6.7 6.7 6.5C6.8 6.3 7 6.2 7.2 6.1C7.4 6 7.7 5.9 8 5.9C8.3 5.9 8.6 5.9 8.8 6C9 6.1 9.2 6.2 9.4 6.5C9.6 6.7 9.7 7 9.7 7.3C9.8 7.6 9.8 8 9.8 8.5C9.8 9 9.8 9.4 9.7 9.7C9.6 9.99999 9.5 10.3 9.4 10.5C9.3 10.7 9.1 10.9 8.8 10.9C8.6 11 8.3 11 8 11C7.7 11 7.4 11 7.2 10.9C7 10.8 6.8 10.7 6.6 10.5C6.5 10.3 6.4 10 6.4 9.7C6.4 9.56905 6.38095 9.41905 6.35948 9.25C6.33175 9.03175 6.3 8.78175 6.3 8.5C6.3 8 6.3 7.7 6.4 7.3ZM7.6 9.4C7.6 9.6 7.6 9.8 7.7 9.9C7.7 9.95 7.725 10 7.75 10.05C7.775 10.1 7.8 10.15 7.8 10.2H8C8.1 10.2 8.2 10.2 8.2 10.1C8.2425 10.0575 8.26693 10.0331 8.28098 10.0037C8.3 9.96388 8.3 9.91501 8.3 9.8C8.3 9.7 8.325 9.625 8.35 9.55C8.375 9.475 8.4 9.4 8.4 9.3V7.7C8.4 7.5 8.4 7.3 8.3 7.2C8.2 7.1 8.3 6.9 8.3 6.9C8.3 6.9 8.1 6.8 8 6.8C7.9 6.8 7.8 6.8 7.8 6.9C7.8 6.9 7.7 7 7.7 7.2C7.7 7.24142 7.68284 7.3 7.66274 7.36863C7.63431 7.46569 7.6 7.58284 7.6 7.7V9.4Z" fill="black"/>
<path fill-rule="evenodd" clip-rule="evenodd" d="M4.3 6C4.7 6 5 6.1 5.2 6.2C5.4 6.3 5.6 6.5 5.7 6.8C5.7 6.8899 5.7202 7 5.74245 7.12122C5.76969 7.26969 5.8 7.43485 5.8 7.6V9.4C5.8 9.7 5.7 10 5.6 10.3C5.5 10.5 5.3 10.7 5.1 10.9C4.95585 11.0442 4.8117 11.0325 4.59266 11.0147C4.5078 11.0078 4.4117 11 4.3 11H2.4V6H4.3ZM4 10.1C4.1 10.1 4.2 10.1 4.3 10C4.3618 10 4.38541 9.9618 4.41803 9.90902C4.4382 9.87639 4.4618 9.8382 4.5 9.8C4.5 9.75858 4.51716 9.7 4.53726 9.63137C4.56569 9.53431 4.6 9.41716 4.6 9.3V7.7C4.6 7.5 4.6 7.3 4.5 7.2L4.3 7H3.7V10.1H4Z" fill="black"/>
<path d="M12.1354 6.92154C12.1536 6.94641 12.1732 6.97321 12.2 7C12.3 7.1 12.3 7.3 12.3 7.5V7.9H13.6V7.6C13.6 7.3 13.6 7.1 13.5 6.9C13.4 6.70001 13.3 6.5 13.2 6.4C13.1 6.3 12.9 6.2 12.7 6.1C12.5 6 12.3 6 12 6C11.7 6 11.4 6 11.2 6.1C10.9 6.1 10.7 6.3 10.6 6.5C10.5 6.69999 10.4 6.99998 10.3 7.29997C10.2 7.59997 10.2 8 10.2 8.5C10.2 9 10.2 9.5 10.3 9.8C10.4 10.1 10.5 10.4 10.6 10.6C10.7 10.8 10.9 10.9 11.1 11C11.3 11.1 11.6 11.1 12 11.1C12.1 11.1 12.2 11.075 12.3 11.05C12.4 11.025 12.5 11 12.6 11C12.7 10.95 12.775 10.9 12.85 10.85C12.925 10.8 13 10.75 13.1 10.7C13.3 10.6 13.4 10.4 13.5 10.2C13.6 9.9 13.6 9.6 13.6 9.3V8.9H12.3V9.5C12.2 9.7 12.2 9.8 12.2 9.9C12.2 10 12.2 10.1 12.1 10.1C12 10.2 12 10.2 11.9 10.2C11.8575 10.2 11.8331 10.2 11.8113 10.1923C11.7819 10.1819 11.7575 10.1575 11.7 10.1C11.7 10.05 11.675 10 11.65 9.95C11.625 9.9 11.6 9.85 11.6 9.8C11.5 9.7 11.5 9.5 11.5 9.3V7.7C11.5 7.58284 11.5343 7.46569 11.5627 7.36863C11.5828 7.3 11.6 7.24142 11.6 7.2C11.6 7 11.6 7 11.7 6.9C11.7 6.8 11.8 6.8 11.9 6.8C12.0464 6.8 12.0856 6.85359 12.1354 6.92154Z" fill="black"/>
<path fill-rule="evenodd" clip-rule="evenodd" d="M11 0C12.5484 0 15.4241 0.829593 15.9247 4H16V16H3V13H0V4H3V0H11ZM1 5V12H15V5H1ZM14.9058 4H4V1H11C11 1 14.3019 1 14.9058 4ZM15 13H4V15H15V13Z" fill="black"/>
</svg>
