<svg width="16" height="16" viewBox="0 0 16 16" fill="none" xmlns="http://www.w3.org/2000/svg">
<path d="M5.2 7.5C5.4 7.3 5.5 7.1 5.5 6.8C5.5 6.5 5.4 6.2 5.2 6.1C5 5.9 4.8 5.8 4.5 5.8H3.4V7.8H4.4C4.8 7.8 5.1 7.7 5.2 7.5Z" fill="#3B5282"/>
<path fill-rule="evenodd" clip-rule="evenodd" d="M8 15V1L1 3V13L8 15ZM2.4 4.9H4.6C5.2 4.9 5.7 5.1 6.1 5.4C6.5 5.8 6.7 6.2 6.7 6.8C6.7 7.4 6.5 7.9 6.2 8.2C5.7 8.6 5.2 8.8 4.5 8.8H3.4V11.1H2.4V4.9Z" fill="#3B5282"/>
<path d="M11 9C9.9 9 9 8.1 9 7C9 5.9 9.9 5 11 5V7H13C13 8.1 12.1 9 11 9Z" fill="#3B5282"/>
<path d="M13 11V10H9V11H13Z" fill="#3B5282"/>
<path d="M9 3H14.3C14.7 3 15 3.3 15 3.6V12.4C15 12.7 14.7 13 14.3 13H9V12H14V4H9V3Z" fill="#3B5282"/>
</svg>
