<svg width="16" height="16" viewBox="0 0 16 16" fill="none" xmlns="http://www.w3.org/2000/svg">
<g clip-path="url(#clip0_224_6938)">
<path d="M12.6 7H12.4V8.2H12.6C12.8 8.2 12.9 8.2 13 8.1C13.1 8 13.1 7.8 13.1 7.6C13.1 7.2 12.9 7 12.6 7Z" fill="#324B7B"/>
<path fill-rule="evenodd" clip-rule="evenodd" d="M3 0H11C12.5484 0 15.4241 0.829593 15.9247 4H16V16H3V13H0V4H3V0ZM4 4H14.9058C14.3019 1 11 1 11 1H4V4ZM15 13H4V15H15V13ZM5 11H3.7V9H2.9V11H1.6V6H2.9V7.8H3.7V6H5V11ZM8.5 11L8.1 7.7L7.6 11H6.2L5.3 6H6.6L7 9.5L7.5 6H8.7L9.2 9.5L9.5 6H10.8L9.9 11H8.5ZM14 8.7C13.7 9 13.3 9.1 12.8 9.1H12.3V11H11V6H13C13.2 6 13.5 6 13.6 6.1C13.7 6.15 13.775 6.2 13.85 6.25C13.925 6.3 14 6.35 14.1 6.4C14.2403 6.47016 14.2822 6.58953 14.3292 6.72359C14.3492 6.78062 14.3702 6.84032 14.4 6.9C14.5 7.1 14.5 7.3 14.5 7.5C14.4 8.1 14.3 8.5 14 8.7Z" fill="#324B7B"/>
</g>
<defs>
<clipPath id="clip0_224_6938">
<rect width="16" height="16" fill="white"/>
</clipPath>
</defs>
</svg>
