<svg width="16" height="16" viewBox="0 0 16 16" fill="none" xmlns="http://www.w3.org/2000/svg">
<g clip-path="url(#clip0_224_6214)">
<path d="M2.8 7.1V6H6V7.1H5V11H3.8V7.1H2.8Z" fill="#324B7B"/>
<path d="M9.8 6L8.7 8.5L9.9 11H8.4L7.9 9.5L7.4 11H6L7.2 8.5L6 6H7.5L7.9 7.4L8.3 6H9.8Z" fill="#324B7B"/>
<path d="M9.8 6H13V7.1H12V11H10.7V7.1H9.8V6Z" fill="#324B7B"/>
<path fill-rule="evenodd" clip-rule="evenodd" d="M11 0C12.5484 0 15.4241 0.829593 15.9247 4H16V16H3V13H0V4H3V0H11ZM1 5V12H15V5H1ZM14.9058 4H4V1H11C11 1 14.3019 1 14.9058 4ZM15 13H4V15H15V13Z" fill="#324B7B"/>
</g>
<defs>
<clipPath id="clip0_224_6214">
<rect width="16" height="16" fill="white"/>
</clipPath>
</defs>
</svg>
