<svg width="16" height="16" viewBox="0 0 16 16" fill="none" xmlns="http://www.w3.org/2000/svg">
<path d="M3.8999 7H4.1999C4.4999 7 4.6999 7.2 4.5999 7.6C4.5999 7.8 4.5999 8 4.4999 8.1C4.3999 8.2 4.2999 8.2 4.0999 8.2H3.8999V7Z" fill="black"/>
<path d="M8.3002 7C8.4002 7 8.4002 7.1 8.4002 7.2C8.45635 7.25616 8.48097 7.34384 8.50947 7.44536C8.53173 7.52462 8.55635 7.61231 8.6002 7.7V9.3C8.6002 9.41716 8.56588 9.53431 8.53745 9.63137C8.51735 9.7 8.5002 9.75858 8.5002 9.8C8.462 9.8382 8.43839 9.87639 8.41823 9.90902C8.38561 9.9618 8.362 10 8.3002 10C8.2002 10.1 8.1002 10.1 8.0002 10.1H7.7002V7H8.3002Z" fill="black"/>
<path fill-rule="evenodd" clip-rule="evenodd" d="M11 0C12.5484 0 15.4241 0.829593 15.9247 4H16V16H3V13H0V4H3V0H11ZM4 4H14.9058C14.3019 1 11 1 11 1H4V4ZM15 13H4V15H15V13ZM5.6 8.7C5.3 9 4.9 9.1 4.4 9.1H3.9V11H2.6V6H4.6C4.8 6 5.1 6 5.2 6.1C5.3 6.15 5.375 6.2 5.45 6.25C5.525 6.3 5.6 6.35 5.7 6.4C5.9 6.5 5.9 6.8 5.9 7C5.9 7.0899 5.9202 7.15959 5.94245 7.23633C5.96969 7.33031 6 7.43485 6 7.6C6 8.1 5.9 8.5 5.6 8.7ZM9.9 9.5C9.9 9.8 9.8 10.1 9.7 10.3C9.6 10.5 9.4 10.7 9.2 10.9C9.05359 11.0464 8.85359 11.0321 8.6 11.0138C8.50718 11.0072 8.40718 11 8.3 11H6.4V6H8.3C8.7 6 9 6.1 9.2 6.2C9.4 6.3 9.6 6.5 9.7 6.8C9.75414 6.90828 9.77897 7.04586 9.80622 7.19689C9.82931 7.32483 9.85414 7.46241 9.9 7.6V9.5ZM13.4 7.1H11.7V8H13.3V9H11.7V11H10.4V6H13.4V7.1Z" fill="black"/>
</svg>
