<svg width="16" height="16" viewBox="0 0 16 16" fill="none" xmlns="http://www.w3.org/2000/svg">
<g clip-path="url(#clip0_224_7161)">
<rect x="1" y="5" width="14" height="7" fill="#C0544D"/>
<path fill-rule="evenodd" clip-rule="evenodd" d="M4.6 6C4.8 6 5.1 6 5.2 6.1C5.3 6.15 5.375 6.2 5.45 6.25C5.525 6.3 5.6 6.35 5.7 6.4C5.9 6.5 5.9 6.8 5.9 7C6 7.1 6 7.3 6 7.6C6 8.1 5.9 8.5 5.6 8.8C5.3 9 4.9 9.1 4.4 9.1H3.9V11H2.6V6H4.6ZM4.2 8.2C4.4 8.2 4.5 8.2 4.6 8.1C4.7 8 4.7 7.8 4.7 7.6C4.7 7.2 4.5 7 4.2 7H3.9V8.2H4.2Z" fill="#324B7B"/>
<path fill-rule="evenodd" clip-rule="evenodd" d="M8.3 6C8.7 6 9 6.1 9.2 6.2C9.4 6.3 9.6 6.5 9.7 6.8C9.75414 6.90828 9.77897 7.04586 9.80622 7.19689C9.82931 7.32483 9.85414 7.46241 9.9 7.6V9.4C9.9 9.7 9.8 10 9.7 10.3C9.6 10.5 9.4 10.7 9.2 10.9C9.05359 11.0464 8.85359 11.0321 8.6 11.0138C8.50718 11.0072 8.40718 11 8.3 11H6.4V6H8.3ZM8 10.1C8.1 10.1 8.2 10.1 8.3 10C8.3618 10 8.38541 9.9618 8.41803 9.90902C8.4382 9.87639 8.4618 9.8382 8.5 9.8C8.5 9.75858 8.51716 9.7 8.53726 9.63137C8.56569 9.53431 8.6 9.41716 8.6 9.3V7.7C8.6 7.5 8.6 7.3 8.5 7.2C8.4618 7.1618 8.4382 7.12361 8.41803 7.09098C8.38541 7.0382 8.3618 7 8.3 7H7.7V10.1H8Z" fill="#324B7B"/>
<path d="M13.4 7.1V6H10.4V11H11.7V9H13.3V8H11.7V7.1H13.4Z" fill="#324B7B"/>
<path fill-rule="evenodd" clip-rule="evenodd" d="M11 0C12.5484 0 15.4241 0.829593 15.9247 4H16V16H3V13H0V4H3V0H11ZM1 5V12H15V5H1ZM14.9058 4H4V1H11C11 1 14.3019 1 14.9058 4ZM15 13H4V15H15V13Z" fill="#324B7B"/>
</g>
<defs>
<clipPath id="clip0_224_7161">
<rect width="16" height="16" fill="white"/>
</clipPath>
</defs>
</svg>
