<svg width="16" height="16" viewBox="0 0 16 16" fill="none" xmlns="http://www.w3.org/2000/svg">
<path d="M8.6 0.2C8.4 0.1 8.2 0 8 0C7.9 0 7.8 0 7.7 0L0.7 2C0.3 2.2 0 2.6 0 3V13C0 13.4 0.3 13.8 0.7 14L7.7 16C7.8 16 7.9 16 8 16C8.2 16 8.4 15.9 8.6 15.8C8.9 15.6 9 15.3 9 15V1C9 0.7 8.9 0.4 8.6 0.2ZM8 15L1 13V3L8 1V15Z" fill="black"/>
<path d="M3.5 8.8H4.6C5.3 8.8 5.8 8.6 6.1 8.3C6.4 8 6.6 7.5 6.6 6.9C6.6 6.3 6.4 5.8 6 5.5C5.7 5.1 5.2 4.9 4.5 4.9H2.4V11.1H3.5V8.8ZM3.5 5.8H4.6C4.9 5.8 5.1 5.9 5.3 6.1C5.5 6.3 5.6 6.5 5.6 6.8C5.6 7.1 5.5 7.4 5.3 7.5C5.1 7.6 4.8 7.8 4.5 7.8H3.5V5.8Z" fill="black"/>
<path d="M13 10H9V11H13V10Z" fill="black"/>
<path d="M9 7C9 8.1 9.9 9 11 9C12.1 9 13 8.1 13 7H11V5C9.9 5 9 5.9 9 7Z" fill="black"/>
<path d="M14.3 3H9V4H14V12H9V13H14.3C14.7 13 15 12.7 15 12.4V3.6C15 3.3 14.7 3 14.3 3Z" fill="black"/>
</svg>
