<svg width="16" height="16" viewBox="0 0 16 16" fill="none" xmlns="http://www.w3.org/2000/svg">
<path d="M10 0H2V16H15V5C15 1 11.7 0 10 0ZM13 14H4V6H13V14Z" fill="#FF0000" fill-opacity="0.3"/>
<path d="M8 9C8 9.55228 7.55228 10 7 10C6.44772 10 6 9.55228 6 9C6 8.44771 6.44772 8 7 8C7.55228 8 8 8.44771 8 9Z" fill="black"/>
<path fill-rule="evenodd" clip-rule="evenodd" d="M4 6H13V14H4V6ZM9 12L12 9V7H5V13H6L6.9 12.2L8 11L9 12Z" fill="black"/>
<path fill-rule="evenodd" clip-rule="evenodd" d="M2 16V0H10C11.7 0 15 1 15 5V16H2ZM10 1H3V15H14V5C14 1 10 1 10 1Z" fill="black"/>
</svg>
