<svg width="16" height="16" viewBox="0 0 16 16" fill="none" xmlns="http://www.w3.org/2000/svg">
<path d="M4.3 7C4.3 7 4.4 7.1 4.4 7.2C4.45616 7.25616 4.48078 7.34384 4.50928 7.44536C4.53153 7.52462 4.55616 7.61231 4.6 7.7V9.3C4.6 9.41716 4.56569 9.53431 4.53726 9.63137C4.51716 9.7 4.5 9.75858 4.5 9.8C4.4618 9.8382 4.4382 9.87639 4.41803 9.90902C4.38541 9.9618 4.3618 10 4.3 10C4.2 10.1 4.1 10.1 4 10.1H3.7V7H4.3Z" fill="black"/>
<path d="M8.4 7.2C8.4 7.15 8.375 7.1 8.35 7.05C8.325 7 8.3 6.95 8.3 6.9C8.2 6.8 8.1 6.8 8 6.8C7.9 6.8 7.8 6.8 7.8 6.9C7.8 6.9 7.7 7 7.7 7.2C7.7 7.24142 7.68284 7.3 7.66274 7.36863C7.63431 7.46569 7.6 7.58284 7.6 7.7V9.3C7.6 9.5 7.6 9.7 7.7 9.8C7.7 9.85 7.725 9.9 7.75 9.95C7.775 10 7.8 10.05 7.8 10.1C7.9 10.2 8 10.2 8 10.2C8.1 10.2 8.2 10.2 8.2 10.1C8.2425 10.0575 8.26693 10.0331 8.28098 10.0037C8.3 9.96388 8.3 9.91501 8.3 9.8C8.3 9.7 8.325 9.625 8.35 9.55C8.375 9.475 8.4 9.4 8.4 9.3V7.7C8.47192 7.55616 8.44039 7.41231 8.41701 7.30567C8.40788 7.26404 8.4 7.22808 8.4 7.2Z" fill="black"/>
<path fill-rule="evenodd" clip-rule="evenodd" d="M11 0C12.5484 0 15.4241 0.829593 15.9247 4H16V16H3V13H0V4H3V0H11ZM4 4H14.9058C14.3019 1 11 1 11 1H4V4ZM15 13H4V15H15V13ZM5.6 10.3C5.7 10.1 5.8 9.8 5.8 9.5C5.9 9.2 5.9 8.8 5.8 8.5V7.6C5.8 7.43485 5.76969 7.2697 5.74245 7.12123C5.72021 7 5.7 6.8899 5.7 6.8C5.6 6.5 5.4 6.3 5.2 6.2C5 6.1 4.7 6 4.3 6H2.4V11H4.3C4.4117 11 4.5078 11.0078 4.59266 11.0147C4.8117 11.0325 4.95585 11.0442 5.1 10.9C5.3 10.7 5.5 10.5 5.6 10.3ZM9.7 9.7C9.8 9.4 9.8 9 9.8 8.5C9.8 8 9.8 7.6 9.7 7.3C9.7 7 9.6 6.7 9.4 6.5C9.2 6.2 9 6.1 8.8 6C8.6 5.9 8.3 5.9 8 5.9C7.7 5.9 7.4 6 7.2 6.1C7 6.2 6.8 6.3 6.7 6.5C6.5 6.7 6.4 7 6.4 7.3C6.3 7.6 6.3 8 6.3 8.5C6.3 8.78175 6.33175 9.03175 6.35948 9.25C6.38095 9.41905 6.4 9.56905 6.4 9.7C6.4 10 6.5 10.3 6.6 10.5C6.8 10.7 7 10.8 7.19999 10.9C7.39999 11 7.7 11 8 11C8.3 11 8.6 11 8.8 10.9C9.1 10.9 9.3 10.7 9.4 10.5C9.5 10.3 9.6 9.99999 9.7 9.7ZM13.1 10.8C13.3 10.7 13.4 10.5 13.5 10.3C13.6 10 13.6 9.7 13.6 9.4V8.8H12.3V9.4C12.2 9.6 12.2 9.7 12.2 9.8C12.2 9.9 12.2 10 12.1 10C12.0425 10.0575 12.0181 10.0819 11.9887 10.0923C11.9669 10.1 11.9425 10.1 11.9 10.1C11.8575 10.1 11.8331 10.1 11.8113 10.0923C11.7819 10.0819 11.7575 10.0575 11.7 10C11.7 9.95 11.675 9.9 11.65 9.85C11.625 9.8 11.6 9.75 11.6 9.7C11.5 9.6 11.5 9.4 11.5 9.2V7.6C11.5 7.48284 11.5343 7.36569 11.5627 7.26863C11.5828 7.2 11.6 7.14142 11.6 7.1C11.6 6.9 11.6 6.9 11.7 6.8C11.7 6.7 11.8 6.7 11.9 6.7C12.0464 6.7 12.0856 6.75359 12.1354 6.82154C12.1536 6.84641 12.1732 6.87321 12.2 6.9C12.3 7 12.3 7.2 12.3 7.5V7.9H13.6V7.6C13.6 7.3 13.6 7.1 13.5 6.9C13.4 6.70001 13.3 6.5 13.2 6.4C13.1 6.3 12.9 6.2 12.7 6.1C12.5 6 12.3 6 12 6C11.7 6 11.4 6 11.2 6.1C10.9 6.1 10.7 6.3 10.6 6.5C10.5 6.69999 10.4 6.99998 10.3 7.29997C10.2 7.59997 10.2 8 10.2 8.5C10.2 9 10.2 9.6 10.3 9.9C10.4 10.2 10.5 10.5 10.6 10.7C10.7 10.9 10.9 11 11.1 11.1C11.3 11.2 11.6 11.2 12 11.2C12.1 11.2 12.2 11.175 12.3 11.15C12.4 11.125 12.5 11.1 12.6 11.1C12.7 11.05 12.775 11 12.85 10.95C12.925 10.9 13 10.85 13.1 10.8Z" fill="black"/>
</svg>
