<svg width="16" height="16" viewBox="0 0 16 16" fill="none" xmlns="http://www.w3.org/2000/svg">
<g clip-path="url(#clip0_7_3114)">
<path d="M15 4H1V15H15V4Z" fill="#FF0000" fill-opacity="0.3"/>
<path d="M7 3V2C7 0.9 6.1 0 5 0H2C0.9 0 0 0.9 0 2V14C0 15.1 0.9 16 2 16H14C15.1 16 16 15.1 16 14V3H7ZM15 14C15 14.6 14.6 15 14 15H2C1.4 15 1 14.6 1 14V4H15V14Z" fill="black"/>
<path d="M5.5 8.6C5 8.6 4.8 9.2 5.2 9.5L5.7 9.8C6.1 10 6.3 10.5 6.1 10.9L5.9 11.4C5.7 11.8 6.3 12.2 6.7 12L7.4 11.6C7.8 11.4 8.2 11.4 8.6 11.6L9.3 12C9.7 12.3 10.3 11.9 10.1 11.4L9.9 10.9C9.7 10.5 9.9 10 10.3 9.8L10.8 9.5C11.2 9.2 11 8.6 10.5 8.6H9.7C9.3 8.6 8.9 8.3 8.7 8L8.5 7.3C8.3 6.9 7.7 6.9 7.5 7.3L7.3 8C7.2 8.4 6.8 8.6 6.3 8.6H5.5Z" fill="black"/>
</g>
<defs>
<clipPath id="clip0_7_3114">
<rect width="16" height="16" fill="white"/>
</clipPath>
</defs>
</svg>
