<svg width="16" height="16" viewBox="0 0 16 16" fill="none" xmlns="http://www.w3.org/2000/svg">
<path d="M16 3V1H12V11H3V4H0V15H14V12H16V9C14.3 9 13 7.7 13 6C13 4.3 14.3 3 16 3Z" fill="#FF0000" fill-opacity="0.3"/>
<path d="M8 3H7C5.9 3 5 3.9 5 5H10C10 3.9 9.1 3 8 3Z" fill="black"/>
<path d="M6 6H5V7H6V6Z" fill="black"/>
<path d="M8 6H7V7H8V6Z" fill="black"/>
<path d="M10 6H9V7H10V6Z" fill="black"/>
<path d="M10 8H5V9H10V8Z" fill="black"/>
<path d="M12 5H11V7H12V5Z" fill="black"/>
<path d="M2 1V4H0V15H14V12H16V8C14.9 8 14 7.1 14 6C14 4.9 14.9 4 16 4V1H2ZM13 14H1V5H2V12H13V14ZM15 3.2C13.8 3.6 13 4.7 13 6C13 7.3 13.8 8.4 15 8.8V11H12V8H11V11H3V2H11V4H12V2H15V3.2Z" fill="black"/>
</svg>
