<svg width="16" height="16" viewBox="0 0 16 16" fill="none" xmlns="http://www.w3.org/2000/svg">
<g clip-path="url(#clip0_7_2321)">
<path fill-rule="evenodd" clip-rule="evenodd" d="M15.3 6.7L14.2 6.3C13.9 6.2 13.7 6 13.6 5.7C13.6 5.7 13.6 5.6 13.5 5.6C13.4 5.3 13.4 5 13.5 4.7L14 3.7C14.2 3.3 14.1 2.9 13.8 2.5L13.4 2.1C13.1 1.8 12.6 1.7 12.2 1.9L11.2 2.4C10.9 2.5 10.6 2.5 10.3 2.4C10.3 2.4 10.2 2.4 10.2 2.3C9.9 2.3 9.7 2.1 9.6 1.8L9.2 0.7C9.1 0.3 8.7 0 8.3 0H7.7C7.3 0 6.9 0.3 6.7 0.7L6.4 1.8C6.3 2.1 6.1 2.3 5.8 2.4C5.8 2.4 5.7 2.4 5.7 2.5C5.3 2.6 5 2.6 4.7 2.5L3.7 2C3.3 1.8 2.8 1.8 2.5 2.1L2.1 2.6C1.8 2.9 1.7 3.3 1.9 3.7L2.4 4.7C2.5 5 2.5 5.3 2.4 5.6C2.4 5.6 2.4 5.7 2.3 5.7C2.3 6.1 2.1 6.3 1.8 6.4L0.7 6.8C0.3 6.9 0 7.3 0 7.7V8.3C0 8.7 0.3 9.1 0.7 9.3L1.8 9.7C2.1 9.8 2.3 10 2.4 10.3C2.4 10.3 2.4 10.4 2.5 10.4C2.6 10.7 2.6 11 2.5 11.3L2 12.3C1.8 12.7 1.9 13.1 2.2 13.5L2.6 13.9C2.9 14.2 3.4 14.3 3.8 14.1L4.8 13.6C5.1 13.5 5.4 13.5 5.7 13.6C5.7 13.6 5.8 13.6 5.8 13.7C6.1 13.8 6.3 14 6.4 14.3L6.8 15.4C6.9 15.7 7.3 16 7.7 16H8.3C8.7 16 9.1 15.7 9.3 15.3L9.7 14.2C9.8 13.9 10 13.7 10.3 13.6C10.3 13.6 10.4 13.6 10.4 13.5C10.7 13.4 11 13.4 11.3 13.5L12.4 14C12.8 14.2 13.3 14.1 13.6 13.8L14 13.4C14.3 13.1 14.4 12.6 14.2 12.2L13.7 11.2C13.6 10.9 13.6 10.6 13.7 10.3C13.7 10.3 13.7 10.2 13.8 10.2C13.9 9.9 14.1 9.7 14.4 9.6L15.5 9.2C15.7 9.1 16 8.7 16 8.3V7.7C16 7.3 15.7 6.9 15.3 6.7ZM8 11C6.3 11 5 9.7 5 8C5 6.3 6.3 5 8 5C9.7 5 11 6.3 11 8C11 9.7 9.7 11 8 11Z" fill="#FF0000" fill-opacity="0.3"/>
<path d="M15.3 6.7L14.2 6.3C13.9 6.2 13.7 6 13.6 5.7C13.6 5.7 13.6 5.6 13.5 5.6C13.4 5.3 13.4 5 13.5 4.7L14 3.7C14.2 3.3 14.1 2.9 13.8 2.5L13.4 2.1C13.2 1.9 13 1.8 12.7 1.8C12.5 1.8 12.4 1.8 12.2 1.9L11.2 2.4C11.1 2.5 10.9 2.5 10.8 2.5C10.7 2.5 10.5 2.5 10.4 2.4C10.4 2.4 10.3 2.4 10.3 2.3C9.9 2.3 9.7 2.1 9.6 1.8L9.2 0.7C9.1 0.3 8.7 0 8.3 0H7.7C7.3 0 6.9 0.3 6.7 0.7L6.4 1.8C6.3 2.1 6.1 2.3 5.8 2.4C5.8 2.4 5.7 2.4 5.7 2.5C5.5 2.6 5.3 2.6 5.2 2.6C5.1 2.6 4.9 2.6 4.8 2.5L3.7 2C3.6 1.9 3.4 1.9 3.2 1.9C3 1.9 2.7 2 2.5 2.1L2.1 2.6C1.8 2.9 1.7 3.3 1.9 3.7L2.4 4.7C2.5 5 2.5 5.3 2.4 5.6C2.4 5.6 2.4 5.7 2.3 5.7C2.3 6.1 2.1 6.3 1.8 6.4L0.7 6.8C0.3 6.9 0 7.3 0 7.7V8.3C0 8.7 0.3 9.1 0.7 9.3L1.8 9.7C2.1 9.8 2.3 10 2.4 10.3C2.4 10.3 2.4 10.4 2.5 10.4C2.6 10.7 2.6 11 2.5 11.3L2 12.3C1.8 12.7 1.9 13.1 2.2 13.5L2.6 13.9C2.8 14.1 3 14.2 3.3 14.2C3.5 14.2 3.6 14.2 3.8 14.1L4.8 13.6C4.9 13.5 5.1 13.5 5.2 13.5C5.3 13.5 5.5 13.5 5.6 13.6C5.6 13.6 5.7 13.6 5.7 13.7C6 13.8 6.2 14 6.3 14.3L6.7 15.4C6.9 15.7 7.3 16 7.7 16H8.3C8.7 16 9.1 15.7 9.3 15.3L9.7 14.2C9.8 13.9 10 13.7 10.3 13.6C10.3 13.6 10.4 13.6 10.4 13.5C10.5 13.4 10.7 13.4 10.8 13.4C10.9 13.4 11.1 13.4 11.2 13.5L12.3 14C12.4 14.1 12.6 14.1 12.7 14.1C13 14.1 13.2 14 13.4 13.8L13.8 13.4C14.1 13.1 14.2 12.6 14 12.2L13.5 11.2C13.4 10.9 13.4 10.6 13.5 10.3C13.5 10.3 13.5 10.2 13.6 10.2C13.7 9.9 13.9 9.7 14.2 9.6L15.3 9.2C15.7 9.1 16 8.7 16 8.3V7.7C16 7.3 15.7 6.9 15.3 6.7ZM15 8.3L13.9 8.7C13.3 8.9 12.9 9.3 12.7 9.9L12.6 10C12.4 10.6 12.4 11.2 12.6 11.7L13.1 12.7L12.7 13.1L11.6 12.6C11.3 12.5 11 12.4 10.7 12.4C10.4 12.4 10.1 12.5 9.9 12.6L9.8 12.7C9.2 12.9 8.8 13.4 8.6 14L8.3 15H7.7L7.3 13.9C7.1 13.3 6.7 12.9 6.1 12.7L6 12.6C5.7 12.5 5.4 12.4 5.2 12.4C4.9 12.4 4.6 12.5 4.3 12.6L3.3 13.1L2.9 12.7L3.4 11.6C3.7 11.1 3.7 10.4 3.4 9.9C3.2 9.3 2.7 8.9 2.1 8.7L1 8.3V7.7L2.1 7.3C2.7 7.1 3.1 6.7 3.3 6.1L3.4 6C3.6 5.4 3.6 4.8 3.4 4.3L2.9 3.3L3.3 2.9L4.4 3.4C4.7 3.5 5 3.6 5.3 3.6C5.6 3.6 5.9 3.5 6.1 3.4L6.2 3.3C6.8 3.1 7.2 2.6 7.4 2L7.7 1H8.3L8.7 2.1C8.9 2.7 9.3 3.1 9.9 3.3L10 3.4C10.3 3.5 10.6 3.6 10.8 3.6C11.1 3.6 11.4 3.5 11.7 3.4L12.7 2.9L13.1 3.3L12.6 4.4C12.3 4.9 12.3 5.6 12.6 6.1L12.7 6.2C12.9 6.8 13.4 7.2 14 7.4L15 7.7V8.3Z" fill="black"/>
<path d="M8 5C6.3 5 5 6.3 5 8C5 9.7 6.3 11 8 11C9.7 11 11 9.7 11 8C11 6.3 9.7 5 8 5ZM8 10C6.9 10 6 9.1 6 8C6 6.9 6.9 6 8 6C9.1 6 10 6.9 10 8C10 9.1 9.1 10 8 10Z" fill="black"/>
</g>
<defs>
<clipPath id="clip0_7_2321">
<rect width="16" height="16" fill="white"/>
</clipPath>
</defs>
</svg>
