<svg width="16" height="16" viewBox="0 0 16 16" fill="none" xmlns="http://www.w3.org/2000/svg">
<g clip-path="url(#clip0_7_2329)">
<path fill-rule="evenodd" clip-rule="evenodd" d="M7.8 1C7.5 1 7.2 1.2 7.2 1.5L6.9 2.6C6.8 3 6.5 3.3 6.1 3.5C5.8 3.6 5.3 3.6 5 3.4L4 2.8C3.7 2.7 3.4 2.7 3.2 2.9L2.9 3.2C2.7 3.4 2.7 3.7 2.8 4L3.4 5C3.6 5.3 3.6 5.8 3.4 6.1C3.3 6.5 3 6.8 2.6 6.9L1.5 7.2C1.2 7.2 1 7.5 1 7.8V8.1C1 8.4 1.2 8.7 1.5 8.8L2.6 9.1C3 9.2 3.3 9.5 3.5 9.9C3.7 10.3 3.7 10.7 3.5 11L2.9 12C2.7 12.3 2.8 12.6 3 12.9L3.2 13.1C3.4 13.3 3.8 13.4 4.1 13.2L5.1 12.6C5.4 12.4 5.9 12.4 6.2 12.6C6.6 12.8 6.9 13 7 13.4L7.3 14.5C7.2 14.8 7.5 15 7.8 15H8.1C8.4 15 8.7 14.8 8.8 14.5L9.1 13.4C9.2 13 9.5 12.7 9.9 12.6C10.3 12.4 10.7 12.4 11 12.6L12 13.2C12.3 13.4 12.6 13.3 12.9 13.1L13.1 12.9C13.3 12.7 13.4 12.3 13.2 12L12.6 11C12.4 10.7 12.4 10.2 12.6 9.9C12.8 9.5 13 9.2 13.4 9.1L14.5 8.8C14.8 8.8 15 8.5 15 8.2V7.8C15 7.5 14.8 7.2 14.5 7.1L13.4 6.8C13 6.7 12.7 6.4 12.6 6C12.4 5.6 12.4 5.2 12.6 4.9L13.2 3.9C13.4 3.6 13.3 3.3 13.1 3L12.9 2.8C12.7 2.6 12.3 2.5 12 2.7L11 3.3C10.7 3.5 10.2 3.5 9.9 3.3C9.5 3.3 9.2 3 9.1 2.6L8.8 1.5C8.8 1.2 8.5 1 8.2 1H7.8ZM8 10.1C9.2 10.1 10.1 9.2 10.1 8C10.1 6.8 9.2 5.9 8 5.9C6.8 5.9 5.9 6.8 5.9 8C5.9 9.2 6.8 10.1 8 10.1Z" fill="#FF0000" fill-opacity="0.3"/>
<path d="M8.2 1C8.5 1 8.8 1.2 8.9 1.5L9.2 2.6C9.2 3 9.5 3.3 9.9 3.5C10.1 3.6 10.3 3.6 10.4 3.6C10.6 3.6 10.8 3.6 11 3.4L12 2.8C12.1 2.7 12.2 2.7 12.4 2.7C12.6 2.7 12.8 2.8 12.9 2.9L13.1 3.1C13.3 3.3 13.4 3.7 13.2 4L12.6 5C12.4 5.3 12.4 5.8 12.6 6.1C12.8 6.5 13 6.8 13.4 6.9L14.5 7.2C14.8 7.2 15 7.5 15 7.8V8.1C15 8.4 14.8 8.7 14.5 8.8L13.4 9.1C13 9.2 12.7 9.5 12.6 9.9C12.4 10.3 12.4 10.7 12.6 11L13.2 12C13.4 12.3 13.3 12.6 13.1 12.9L12.9 13.1C12.8 13.2 12.6 13.3 12.4 13.3C12.3 13.3 12.2 13.3 12 13.2L11 12.6C10.8 12.5 10.6 12.4 10.4 12.4C10.2 12.4 10 12.4 9.9 12.5C9.5 12.7 9.2 12.9 9.1 13.3L8.8 14.4C8.8 14.8 8.5 15 8.2 15H7.8C7.5 15 7.2 14.8 7.1 14.5L6.8 13.4C6.7 13 6.4 12.7 6 12.6C5.8 12.5 5.6 12.5 5.5 12.5C5.3 12.5 5.1 12.5 4.9 12.7L3.9 13.3C3.8 13.4 3.7 13.4 3.5 13.4C3.3 13.4 3.1 13.3 3 13.2L2.8 13C2.6 12.8 2.5 12.4 2.7 12.1L3.3 11.1C3.5 10.8 3.5 10.3 3.3 10C3.3 9.5 3 9.2 2.6 9.1L1.5 8.8C1.2 8.8 1 8.5 1 8.2V7.8C1 7.5 1.2 7.2 1.5 7.1L2.6 6.8C3 6.8 3.3 6.5 3.5 6.1C3.7 5.7 3.7 5.3 3.5 5L2.8 4C2.7 3.7 2.7 3.4 2.9 3.2L3.1 3C3.2 2.9 3.4 2.8 3.6 2.8C3.7 2.8 3.8 2.8 4 2.9L5 3.5C5.2 3.6 5.4 3.7 5.6 3.7C5.8 3.7 6 3.7 6.1 3.6C6.5 3.3 6.8 3 6.9 2.6L7.2 1.5C7.2 1.2 7.5 1 7.8 1H8.2ZM8 10.1C9.2 10.1 10.1 9.2 10.1 8C10.1 6.8 9.2 5.9 8 5.9C6.8 5.9 5.9 6.8 5.9 8C5.9 9.2 6.8 10.1 8 10.1ZM8.2 0H7.8C7.1 0 6.4 0.5 6.2 1.3L5.9 2.4C5.9 2.4 5.8 2.5 5.7 2.6C5.6 2.6 5.6 2.6 5.5 2.6H5.4L4.5 2C4.3 1.8 4 1.7 3.7 1.7C3.2 1.7 2.8 1.9 2.5 2.2L2.2 2.5C1.7 3 1.6 3.9 2 4.5L2.6 5.5C2.6 5.5 2.6 5.6 2.6 5.7C2.6 5.8 2.5 5.9 2.4 5.9L1.3 6.2C0.5 6.4 0 7.1 0 7.8V8.1C0 8.9 0.5 9.6 1.3 9.7L2.4 10C2.4 10 2.5 10.1 2.6 10.2C2.6 10.3 2.6 10.4 2.6 10.4L2 11.4C1.6 12.1 1.7 12.9 2.3 13.5L2.5 13.7C2.8 14 3.2 14.2 3.7 14.2C4 14.2 4.3 14.1 4.6 14L5.6 13.4C5.6 13.4 5.6 13.4 5.7 13.4C5.7 13.4 5.8 13.4 5.9 13.4C6 13.4 6.1 13.5 6.1 13.6L6.4 14.7C6.4 15.5 7.1 16 7.8 16H8.1C8.9 16 9.6 15.5 9.7 14.7L10 13.6C10 13.6 10.1 13.5 10.2 13.4C10.3 13.4 10.3 13.4 10.4 13.4H10.5L11.5 14C11.8 14.2 12.1 14.2 12.4 14.2C12.9 14.2 13.3 14 13.6 13.7L13.8 13.5C14.4 12.9 14.5 12.1 14.1 11.4L13.5 10.4C13.5 10.4 13.5 10.3 13.5 10.2C13.5 10.1 13.6 10 13.7 10L14.8 9.7C15.5 9.6 16 8.9 16 8.2V7.8C16 7 15.5 6.3 14.7 6.2L13.6 5.9C13.6 5.9 13.5 5.8 13.4 5.7C13.4 5.6 13.4 5.5 13.4 5.5L14 4.5C14.4 3.8 14.3 3 13.7 2.4L13.5 2.2C13.2 1.9 12.8 1.7 12.3 1.7C12 1.7 11.7 1.8 11.4 1.9L10.4 2.5H10.3C10.3 2.5 10.2 2.5 10.1 2.5C10 2.5 9.9 2.4 9.9 2.3L9.8 1.3C9.6 0.5 8.9 0 8.2 0ZM8 9.1C7.4 9.1 6.9 8.6 6.9 8C6.9 7.4 7.4 6.9 8 6.9C8.6 6.9 9.1 7.4 9.1 8C9.1 8.6 8.6 9.1 8 9.1Z" fill="black"/>
</g>
<defs>
<clipPath id="clip0_7_2329">
<rect width="16" height="16" fill="white"/>
</clipPath>
</defs>
</svg>
