<svg width="16" height="16" viewBox="0 0 16 16" fill="none" xmlns="http://www.w3.org/2000/svg">
<path fill-rule="evenodd" clip-rule="evenodd" d="M7.8 1C7.5 1 7.2 1.2 7.2 1.5L6.9 2.6C6.8 3 6.5 3.3 6.1 3.5C5.8 3.6 5.3 3.6 5 3.4L4 2.8C3.7 2.7 3.4 2.7 3.2 2.9L2.9 3.2C2.7 3.4 2.7 3.7 2.8 4L3.4 5C3.6 5.3 3.6 5.8 3.4 6.1C3.3 6.5 3 6.8 2.6 6.9L1.5 7.2C1.2 7.2 1 7.5 1 7.8V8.1C1 8.4 1.2 8.7 1.5 8.8L2.6 9.1C3 9.2 3.3 9.5 3.5 9.9C3.7 10.3 3.7 10.7 3.5 11L2.9 12C2.7 12.3 2.8 12.6 3 12.9L3.2 13.1C3.4 13.3 3.8 13.4 4.1 13.2L5.1 12.6C5.4 12.4 5.9 12.4 6.2 12.6C6.6 12.8 6.9 13 7 13.4L7.3 14.5C7.2 14.8 7.5 15 7.8 15H8.1C8.4 15 8.7 14.8 8.8 14.5L9.1 13.4C9.2 13 9.5 12.7 9.9 12.6C10.3 12.4 10.7 12.4 11 12.6L12 13.2C12.3 13.4 12.6 13.3 12.9 13.1L13.1 12.9C13.3 12.7 13.4 12.3 13.2 12L12.6 11C12.4 10.7 12.4 10.2 12.6 9.9C12.8 9.5 13 9.2 13.4 9.1L14.5 8.8C14.8 8.8 15 8.5 15 8.2V7.8C15 7.5 14.8 7.2 14.5 7.1L13.4 6.8C13 6.7 12.7 6.4 12.6 6C12.4 5.6 12.4 5.2 12.6 4.9L13.2 3.9C13.4 3.6 13.3 3.3 13.1 3L12.9 2.8C12.7 2.6 12.3 2.5 12 2.7L11 3.3C10.7 3.5 10.2 3.5 9.9 3.3C9.5 3.3 9.2 3 9.1 2.6L8.8 1.5C8.8 1.2 8.5 1 8.2 1H7.8ZM8 10.1C9.2 10.1 10.1 9.2 10.1 8C10.1 6.8 9.2 5.9 8 5.9C6.8 5.9 5.9 6.8 5.9 8C5.9 9.2 6.8 10.1 8 10.1Z" fill="black"/>
</svg>
