<svg width="16" height="16" viewBox="0 0 16 16" fill="none" xmlns="http://www.w3.org/2000/svg">
<path d="M1 11L3 5H13L15 11H1Z" fill="#FF0000" fill-opacity="0.3"/>
<path d="M15.7 11.7L14.4 6.8C14.1 5.5 12.9 4.5 11.5 4.5H10V3H6V4.5H4.6C3.2 4.5 2 5.4 1.7 6.8L0.4 11.7C0.1 12.1 0 12.5 0 13C0 14.7 1.3 16 3 16H13C14.7 16 16 14.7 16 13C16 12.5 15.9 12.1 15.7 11.7ZM2.6 7C2.8 6.1 3.6 5.5 4.5 5.5H6V7H4L8 10L12 7H10V5.5H11.4C12.3 5.5 13.1 6.1 13.3 7L14.2 10.3C13.9 10.1 13.5 10 13 10H8H3C2.5 10 2.1 10.1 1.7 10.3L2.6 7ZM13 15H3C1.9 15 1 14.1 1 13C1 11.9 1.9 11 3 11H13C14.1 11 15 11.9 15 13C15 14.1 14.1 15 13 15Z" fill="black"/>
<path d="M13 14C13.5523 14 14 13.5523 14 13C14 12.4477 13.5523 12 13 12C12.4477 12 12 12.4477 12 13C12 13.5523 12.4477 14 13 14Z" fill="black"/>
<path d="M10 14C10.5523 14 11 13.5523 11 13C11 12.4477 10.5523 12 10 12C9.44772 12 9 12.4477 9 13C9 13.5523 9.44772 14 10 14Z" fill="black"/>
<path d="M10 1H6V2H10V1Z" fill="black"/>
</svg>
