<svg width="16" height="16" viewBox="0 0 16 16" fill="none" xmlns="http://www.w3.org/2000/svg">
<g clip-path="url(#clip0_7_1562)">
<path d="M7.5 6C8.88071 6 10 4.88071 10 3.5C10 2.11929 8.88071 1 7.5 1C6.11929 1 5 2.11929 5 3.5C5 4.88071 6.11929 6 7.5 6Z" fill="#FF0000" fill-opacity="0.3"/>
<path fill-rule="evenodd" clip-rule="evenodd" d="M12 9C11.2 9 10.5 9.3 10 9.8V9.5C10 8.1 8.9 7 7.5 7C6.1 7 5 8.1 5 9.5V13H9.2C9.6 14.2 10.7 15 12 15C13.7 15 15 13.7 15 12C15 10.3 13.7 9 12 9Z" fill="#FF0000" fill-opacity="0.3"/>
<path d="M15.5 11.1L15 10.9C15 10.8 14.9 10.7 14.9 10.6L15.1 10.1C15.2 9.8 15.1 9.4 14.9 9.1C14.6 8.8 14.3 8.7 13.9 8.9L13.4 9.1C13.3 9.1 13.2 9 13.1 9L12.9 8.5C12.7 8.2 12.4 8 12 8C11.6 8 11.3 8.2 11.1 8.5L10.9 8.9C10.7 7.9 10.1 7 9.2 6.5C10.2 5.9 10.9 4.8 10.9 3.5C11 1.6 9.4 0 7.5 0C5.6 0 4 1.6 4 3.5C3.6 3.2 3.1 3 2.5 3C1.1 3 0 4.1 0 5.5C0 6.3 0.4 7 1 7.5C0.4 8 0 8.7 0 9.5V13V14H1H4H5H8.9C8.9 14.3 8.9 14.6 9.2 14.8C9.5 15.1 9.8 15.2 10.2 15L10.7 14.8C10.8 14.8 10.9 14.9 11 14.9L11.2 15.4C11.4 15.7 11.7 15.9 12.1 15.9C12.5 15.9 12.8 15.7 13 15.4L13.2 14.9C13.3 14.9 13.4 14.8 13.5 14.8L14 15C14.3 15.1 14.7 15 15 14.8C15.3 14.5 15.4 14.2 15.2 13.8L15 13.3C15 13.2 15.1 13.1 15.1 13L15.6 12.8C15.9 12.6 16.1 12.3 16.1 11.9C16.1 11.5 15.8 11.3 15.5 11.1ZM7.5 1C8.9 1 10 2.1 10 3.5C10 4.9 8.9 6 7.5 6C6.1 6 5 4.9 5 3.5C5 2.1 6.1 1 7.5 1ZM1 5.5C1 4.7 1.7 4 2.5 4C3.3 4 4 4.7 4 5.5C4 6.3 3.3 7 2.5 7C1.7 7 1 6.3 1 5.5ZM4 13H1V9.5C1 8.7 1.7 8 2.5 8C3.3 8 4 8.7 4 9.5V13ZM4.4 7.9C4.3 7.8 4.1 7.6 4 7.5C4.5 7.1 4.9 6.6 5 5.9C5.2 6.1 5.5 6.3 5.8 6.5C5.2 6.8 4.7 7.3 4.4 7.9ZM5 9.5C5 8.1 6.1 7 7.5 7C8.7 7 9.6 7.8 9.9 8.9C9.6 8.9 9.4 9 9.2 9.2C8.9 9.5 8.8 9.8 9 10.2L9.2 10.7C9.2 10.8 9.1 10.9 9.1 11L8.6 11.2C8.2 11.3 8 11.6 8 12C8 12.4 8.2 12.7 8.5 12.9L8.8 13H5V9.5ZM12 13.6C11.1 13.6 10.4 12.9 10.4 12C10.4 11.1 11.1 10.4 12 10.4C12.9 10.4 13.6 11.1 13.6 12C13.6 12.9 12.9 13.6 12 13.6Z" fill="black"/>
</g>
<defs>
<clipPath id="clip0_7_1562">
<rect width="16" height="16" fill="white"/>
</clipPath>
</defs>
</svg>
