<svg width="16" height="16" viewBox="0 0 16 16" fill="none" xmlns="http://www.w3.org/2000/svg">
<g clip-path="url(#clip0_7_1939)">
<path fill-rule="evenodd" clip-rule="evenodd" d="M12 7.00001C13.7 7.00001 15 5.70001 15 4.00001C15 3.70001 15.1 3.30001 15 3.00001L13 5.00001H11V3.00001L13 1.00001C12.7 0.900011 12.3 1.00001 12 1.00001C10.3 1.00001 9 2.30001 9 4.00001C9 4.60001 9.2 5.10001 9.4 5.60001L8 7.00001L5 4.00001L5.5 3.50001L3 2.00001L2 3.00001L3.5 5.50001L4 5.00001L7 8.00001L5.5 9.50001C5.1 9.20001 4.6 9.00001 4 9.00001C2.3 9.00001 1 10.3 1 12C1 12.3 1.1 12.6 1.1 12.9L3 11H5V13L3.1 14.9C3.4 15 3.7 15 4 15C5.7 15 7 13.7 7 12C7 11.4 6.8 10.9 6.6 10.4L8 9.00001L10.5 11.5L10 12L12 14L14 12L12 10L11.5 10.5L9 8.00001L10.4 6.60001C10.9 6.80001 11.4 7.00001 12 7.00001Z" fill="#FF0000" fill-opacity="0.3"/>
<path d="M12 8.6L11.5 9.1L10.4 8L10.6 7.8C11.1 7.9 11.5 8 12 8C14.2 8 16 6.2 16 4C16 3.9 16 3.8 16 3.8C16 3.5 16.1 3.1 15.9 2.8C15.8 2.5 15.5 2.2 15.2 2.1C15.1 2.1 15 2.1 15 2.1C14.7 2.1 14.5 2.2 14.3 2.4L12.6 4H12V3.4L13.7 1.7C13.9 1.5 14 1.1 14 0.7C13.9 0.4 13.7 0.1 13.3 0C13.1 0 12.9 0 12.7 0C12.6 0 12.4 0 12.3 0C12.2 0 12.1 0 12.1 0C9.8 0 8 1.8 8 4C8 4.5 8.1 4.9 8.2 5.3L8 5.6L6.4 4L7.1 3.3L6 2.7L3.5 1.2L2.8 0.8L0.7 2.9L1.1 3.6L2.6 6L3.3 7.1L4 6.4L5.6 8L5.3 8.3C4.9 8.1 4.4 8 4 8C1.8 8 0 9.8 0 12C0 12.4 0.1 12.7 0.2 13.1C0.3 13.4 0.6 13.7 0.9 13.8C1 13.8 1.1 13.8 1.1 13.8C1.4 13.8 1.6 13.7 1.8 13.5L3.4 12H4V12.6L2.4 14.2C2.2 14.4 2.1 14.8 2.1 15.2C2.1 15.6 2.4 15.8 2.8 15.9C3.2 16 3.6 16 4 16C6.2 16 8 14.2 8 12C8 11.5 7.9 11.1 7.8 10.7L8 10.4L9.1 11.5L8.6 12L12 15.4L15.4 12L12 8.6ZM4 5L3.5 5.5L2 3L3 2L5.5 3.5L5 4L7.3 6.3L6.3 7.3L4 5ZM7 12C7 13.7 5.7 15 4 15C3.7 15 3.4 14.9 3.1 14.9L5 13V11H3L1.1 12.9C1 12.6 1 12.3 1 12C1 10.3 2.3 9 4 9C4.6 9 5.1 9.2 5.6 9.4L9.5 5.5C9.2 5.1 9 4.6 9 4C9 2.3 10.3 1 12 1C12.2 1 12.5 1 12.7 1C12.8 1 12.9 1 13 1L11 3V5H13L15 3C15.1 3.3 15 3.7 15 4C15 5.7 13.7 7 12 7C11.4 7 10.9 6.8 10.4 6.6L6.5 10.5C6.8 10.9 7 11.4 7 12ZM12 14L10 12L10.5 11.5L8.7 9.7L9.7 8.7L11.5 10.5L12 10L14 12L12 14Z" fill="black"/>
</g>
<defs>
<clipPath id="clip0_7_1939">
<rect width="16" height="16" fill="white"/>
</clipPath>
</defs>
</svg>
