<svg width="16" height="16" viewBox="0 0 16 16" fill="none" xmlns="http://www.w3.org/2000/svg">
<path d="M3.5 9C4.88071 9 6 7.88071 6 6.5C6 5.11929 4.88071 4 3.5 4C2.11929 4 1 5.11929 1 6.5C1 7.88071 2.11929 9 3.5 9Z" fill="#FF0000" fill-opacity="0.3"/>
<path d="M12.5 9C13.8807 9 15 7.88071 15 6.5C15 5.11929 13.8807 4 12.5 4C11.1193 4 10 5.11929 10 6.5C10 7.88071 11.1193 9 12.5 9Z" fill="#FF0000" fill-opacity="0.3"/>
<path d="M2 14H5V9H3.5H2V14Z" fill="#FF0000" fill-opacity="0.3"/>
<path d="M11 14H14V9H12.5H11V14Z" fill="#FF0000" fill-opacity="0.3"/>
<path d="M15 6.5C15 5.1 13.9 4 12.5 4C11.9 4 11.4 4.2 10.9 4.6C11 4.4 11 4.2 11 4C11 2.3 9.7 1 8 1C6.3 1 5 2.3 5 4C5 4.2 5 4.4 5.1 4.6C4.6 4.2 4.1 4 3.5 4C2.1 4 1 5.1 1 6.5C1 7.3 1.4 8.1 2 8.5C1.4 9 1 9.8 1 11V14V15H2H5H6H10H11H14H15V14V11C15 9.8 14.6 9 14 8.5C14.6 8.1 15 7.3 15 6.5ZM12.5 5C13.3 5 14 5.7 14 6.5C14 7.3 13.3 8 12.5 8C11.7 8 11 7.3 11 6.5C11 5.7 11.7 5 12.5 5ZM8 2C9.1 2 10 2.9 10 4C10 5.1 9.1 6 8 6C6.9 6 6 5.1 6 4C6 2.9 6.9 2 8 2ZM2 6.5C2 5.7 2.7 5 3.5 5C4.3 5 5 5.7 5 6.5C5 7.3 4.3 8 3.5 8C2.7 8 2 7.3 2 6.5ZM5 14H2V11C2 9.6 2.7 9 3.5 9C4.3 9 5 9.6 5 11V14ZM10 11V14H6V11V9.7C6 7.8 6.9 7 8 7C9.1 7 10 7.8 10 9.7V11ZM14 11V14H11V11C11 9.6 11.7 9 12.5 9C13.3 9 14 9.6 14 11Z" fill="black"/>
</svg>
