<svg width="16" height="16" viewBox="0 0 16 16" fill="none" xmlns="http://www.w3.org/2000/svg">
<path d="M2 0V16H5V13H11V16H14V0H2ZM4 15H3V13H4V15ZM13 15H12V13H13V15ZM3 12V1H13V12H3Z" fill="black"/>
<path d="M8 2C5.7 2 4 3.1 4 4.5C4 5.9 5.7 7 8 7C10.3 7 12 5.9 12 4.5C12 3.1 10.3 2 8 2ZM8 6C6.3 6 5 5.3 5 4.5C5 3.7 6.3 3 8 3C9.7 3 11 3.7 11 4.5C11 5.3 9.7 6 8 6Z" fill="black"/>
<path d="M7 8H4V9H7V8Z" fill="black"/>
<path d="M6 10H4V11H6V10Z" fill="black"/>
<path d="M12 8H9V9H12V8Z" fill="black"/>
<path d="M11 10H9V11H11V10Z" fill="black"/>
</svg>
