<svg width="16" height="16" viewBox="0 0 16 16" fill="none" xmlns="http://www.w3.org/2000/svg">
<g clip-path="url(#clip0_7_1959)">
<path d="M3.5 3C3 3 2.6 3.1 2.1 3.3C1.3 3.7 0.6 4.3 0.2 5.2C0.1 5.6 0 6 0 6.5C0 6.7 0 6.9 0.1 7.1C0.1 7.2 0.1 7.2 0.1 7.3C0.1 7.4 0.2 7.6 0.2 7.7C0.2 7.8 0.2 7.8 0.3 7.9C0.4 8.1 0.5 8.2 0.6 8.4C0.7 8.5 0.7 8.6 0.8 8.6C0.9 8.7 0.9 8.7 1 8.8C1 8.9 1.1 9 1.2 9.1L1.3 9.2C1.5 9.4 1.7 9.5 2 9.6V16H6V10H9L12 13V0L9 3H3.5ZM5 15H3V10H5V15ZM6 9V4H8V9H6Z" fill="black"/>
<path d="M15 6H13V7H15V6Z" fill="black"/>
<path d="M14.6362 0.65661L12.6563 2.63649L13.3634 3.34359L15.3433 1.36371L14.6362 0.65661Z" fill="black"/>
<path d="M13.3633 9.65661L12.6562 10.3637L14.6361 12.3436L15.3432 11.6365L13.3633 9.65661Z" fill="black"/>
</g>
<defs>
<clipPath id="clip0_7_1959">
<rect width="16" height="16" fill="white"/>
</clipPath>
</defs>
</svg>
