<svg width="16" height="16" viewBox="0 0 16 16" fill="none" xmlns="http://www.w3.org/2000/svg">
<g clip-path="url(#clip0_7_1855)">
<path d="M8 5C6.3 5 5 6.3 5 8C5 9.7 6.3 11 8 11C9.7 11 11 9.7 11 8C11 6.3 9.7 5 8 5ZM8 10C6.9 10 6 9.1 6 8C6 6.9 6.9 6 8 6C9.1 6 10 6.9 10 8C10 9.1 9.1 10 8 10Z" fill="black"/>
<path d="M14 7.5C13.7 4.6 11.4 2.3 8.5 2V0H7.5V2C4.6 2.3 2.3 4.6 2 7.5H0V8.5H2C2.2 11.4 4.6 13.7 7.5 14V16H8.5V14C11.4 13.8 13.7 11.4 14 8.5H16V7.5H14ZM8 13C5.2 13 3 10.8 3 8C3 5.2 5.2 3 8 3C10.8 3 13 5.2 13 8C13 10.8 10.8 13 8 13Z" fill="black"/>
<path d="M1.36341 0.65661L0.65631 1.36371L2.63619 3.34359L3.34329 2.63649L1.36341 0.65661Z" fill="black"/>
<path d="M14.6362 0.65661L12.6563 2.63649L13.3634 3.34359L15.3433 1.36371L14.6362 0.65661Z" fill="black"/>
<path d="M13.3633 12.6566L12.6562 13.3637L14.6361 15.3436L15.3432 14.6365L13.3633 12.6566Z" fill="black"/>
<path d="M2.63619 12.6565L0.65631 14.6364L1.36341 15.3435L3.34329 13.3636L2.63619 12.6565Z" fill="black"/>
</g>
<defs>
<clipPath id="clip0_7_1855">
<rect width="16" height="16" fill="white"/>
</clipPath>
</defs>
</svg>
