<svg width="16" height="16" viewBox="0 0 16 16" fill="none" xmlns="http://www.w3.org/2000/svg">
<path d="M14.6 7.90005C13.8 9.60005 12.1 10.8001 10.1 10.8001C7.4 10.8001 5.2 8.60005 5.2 5.90005C5.2 3.90005 6.4 2.20005 8.1 1.40005C8.3 1.30005 8.2 1.00005 8 1.00005C4.1 1.00005 1 4.10005 1 8.00005C1 11.9001 4.1 15.0001 8 15.0001C11.9 15.0001 15 11.9001 15 8.00005C15 7.80005 14.7 7.70005 14.6 7.90005Z" fill="black"/>
<path d="M11 7.00005C11.5523 7.00005 12 6.55233 12 6.00005C12 5.44776 11.5523 5.00005 11 5.00005C10.4477 5.00005 10 5.44776 10 6.00005C10 6.55233 10.4477 7.00005 11 7.00005Z" fill="black"/>
<path d="M15.9 2.30005L14.3 1.90005C14.2 1.90005 14.2 1.80005 14.2 1.80005L13.8 0.200049C13.7 4.87864e-05 13.5 4.87864e-05 13.4 0.200049L13 1.80005C13 1.90005 12.9 1.90005 12.9 1.90005L11.3 2.30005C11.1 2.40005 11.1 2.60005 11.3 2.70005L12.9 3.10005C13 3.10005 13 3.20005 13 3.20005L13.4 4.80005C13.5 5.00005 13.7 5.00005 13.8 4.80005L14.2 3.20005C14.2 3.10005 14.3 3.10005 14.3 3.10005L15.9 2.70005C16 2.60005 16 2.40005 15.9 2.30005Z" fill="black"/>
</svg>
