<svg width="16" height="16" viewBox="0 0 16 16" fill="none" xmlns="http://www.w3.org/2000/svg">
<path d="M6.99998 7V1H0.999976V7H6.99998ZM1.99998 2H5.99998V6H1.99998V2Z" fill="black"/>
<path d="M12 9C10.3 9 8.99998 10.3 8.99998 12C8.99998 13.7 10.3 15 12 15C13.7 15 15 13.7 15 12C15 10.3 13.7 9 12 9ZM12 14C10.9 14 9.99998 13.1 9.99998 12C9.99998 10.9 10.9 10 12 10C13.1 10 14 10.9 14 12C14 13.1 13.1 14 12 14Z" fill="black"/>
<path d="M12 4V1H11V4H7.99998V5H11V8H12V5H15V4H12Z" fill="black"/>
<path d="M4.49998 7.6L0.599976 11.5L4.49998 15.4L8.39998 11.5L4.49998 7.6ZM4.49998 14L1.99998 11.5L4.49998 9L6.99998 11.5L4.49998 14Z" fill="black"/>
</svg>
