<svg width="16" height="16" viewBox="0 0 16 16" fill="none" xmlns="http://www.w3.org/2000/svg">
<g clip-path="url(#clip0_7_2876)">
<path d="M7.09993 1.10005C7.39993 0.200048 8.49993 0.200048 8.79993 1.10005L9.99993 4.90005C10.0999 5.30005 10.4999 5.50005 10.8999 5.50005H14.6999C15.5999 5.50005 15.8999 6.70005 15.1999 7.20005L12.1999 9.50005C11.8999 9.70005 11.7999 10.2001 11.8999 10.5001L13.0999 14.2001C13.3999 15.1001 12.3999 15.8001 11.6999 15.2001L8.69993 12.9001C8.39993 12.7001 7.99993 12.7001 7.59993 12.9001L4.59993 15.2001C3.89993 15.7001 2.89993 15.0001 3.19993 14.2001L4.39993 10.5001C4.49993 10.1001 4.39993 9.70005 4.09993 9.50005L1.09993 7.20005C0.0999338 6.70005 0.499934 5.50005 1.39993 5.50005H5.19993C5.59993 5.50005 5.89993 5.20005 6.09993 4.90005L7.09993 1.10005Z" fill="#FF0000" fill-opacity="0.3"/>
<path fill-rule="evenodd" clip-rule="evenodd" d="M6.7 1.00002C7.1 -0.299976 8.9 -0.299976 9.3 1.00002L10.5 4.70002C10.5 4.90002 10.7 5.00002 10.9 5.00002H14.7C16 5.00002 16.6 6.70002 15.5 7.50002L12.5 9.80002C12.3 9.90002 12.3 10.1 12.3 10.3L13.5 14C13.9 15.3 12.5 16.4 11.4 15.6L8.39999 13.3C8.19999 13.2 8 13.2 7.9 13.3L4.9 15.6C3.8 16.4 2.39999 15.3 2.79999 14L3.99999 10.3C4.09999 10.1 3.99999 9.90002 3.79999 9.80002L0.799995 7.50002C-0.500005 6.80002 -4.64916e-06 5.00002 1.39999 5.00002H5.2C5.4 5.00002 5.6 4.90002 5.6 4.70002L6.7 1.00002ZM8.39999 1.30002C8.29999 0.900024 7.7 0.900024 7.5 1.30002L6.4 5.00002C6.2 5.60002 5.7 6.00002 5.1 6.00002H1.39999C0.899995 6.00002 0.699995 6.60002 1.1 6.80002L4.1 9.10002C4.6 9.50002 4.8 10.1 4.6 10.7L3.4 14.4C3.3 14.8 3.7 15.2 4.1 14.9L7.1 12.6C7.6 12.2 8.2 12.2 8.7 12.6L11.7 14.9C12.1 15.2 12.5 14.8 12.4 14.4L11.2 10.7C11 10.1 11.2 9.50002 11.7 9.10002L14.7 6.80002C15.3 6.60002 15.1 6.00002 14.6 6.00002H10.8C10.2 6.00002 9.7 5.60002 9.5 5.00002L8.39999 1.30002Z" fill="black"/>
</g>
<defs>
<clipPath id="clip0_7_2876">
<rect width="16" height="16" fill="white"/>
</clipPath>
</defs>
</svg>
