<svg width="16" height="16" viewBox="0 0 16 16" fill="none" xmlns="http://www.w3.org/2000/svg">
<g clip-path="url(#clip0_7_2204)">
<path d="M15 4H1V15H15V4Z" fill="#FF0000" fill-opacity="0.3"/>
<path d="M2 3C2.55228 3 3 2.55228 3 2C3 1.44772 2.55228 1 2 1C1.44772 1 1 1.44772 1 2C1 2.55228 1.44772 3 2 3Z" fill="#FF0000" fill-opacity="0.3"/>
<path d="M0 0V16H16V0H0ZM6 2C6 2.6 5.6 3 5 3C4.4 3 4 2.6 4 2C4 1.4 4.4 1 5 1C5.6 1 6 1.4 6 2ZM2 1C2.6 1 3 1.4 3 2C3 2.6 2.6 3 2 3C1.4 3 1 2.6 1 2C1 1.4 1.4 1 2 1ZM15 15H1V4H15V15Z" fill="black"/>
<path d="M2.6 9.4L4.6 11.4C4.7 11.5 4.8 11.5 5 11.5C5.1 11.5 5.3 11.5 5.4 11.4C5.6 11.2 5.6 10.9 5.4 10.7L3.7 9L5.4 7.4C5.6 7.2 5.6 6.9 5.4 6.7C5.2 6.5 4.9 6.5 4.7 6.7L2.7 8.7C2.5 8.7 2.5 8.9 2.5 9C2.5 9.1 2.5 9.3 2.6 9.4Z" fill="black"/>
<path d="M6.8 12.5C6.9 12.5 6.9 12.5 7 12.5C7.2 12.5 7.4 12.4 7.5 12.2L9.5 6.2C9.6 5.9 9.4 5.7 9.2 5.6C8.9 5.4 8.6 5.6 8.5 5.8L6.5 11.8C6.4 12.1 6.6 12.4 6.8 12.5Z" fill="black"/>
<path d="M10.6 11.4C10.7 11.5 10.8 11.5 11 11.5C11.1 11.5 11.3 11.5 11.4 11.4L13.4 9.4C13.5 9.3 13.5 9.2 13.5 9C13.5 8.8 13.4 8.7 13.4 8.6L11.4 6.6C11.2 6.4 10.9 6.4 10.7 6.6C10.5 6.8 10.5 7.1 10.7 7.3L12.3 9L10.6 10.6C10.4 10.8 10.4 11.2 10.6 11.4Z" fill="black"/>
</g>
<defs>
<clipPath id="clip0_7_2204">
<rect width="16" height="16" fill="white"/>
</clipPath>
</defs>
</svg>
