<svg width="16" height="16" viewBox="0 0 16 16" fill="none" xmlns="http://www.w3.org/2000/svg">
<g clip-path="url(#clip0_7_2269)">
<path d="M15 4H1V15H15V4Z" fill="#FF0000" fill-opacity="0.3"/>
<path d="M2 3C2.55228 3 3 2.55228 3 2C3 1.44772 2.55228 1 2 1C1.44772 1 1 1.44772 1 2C1 2.55228 1.44772 3 2 3Z" fill="#FF0000" fill-opacity="0.3"/>
<path d="M0 0V16H16V0H0ZM6 2C6 2.6 5.6 3 5 3C4.4 3 4 2.6 4 2C4 1.4 4.4 1 5 1C5.6 1 6 1.4 6 2ZM2 1C2.6 1 3 1.4 3 2C3 2.6 2.6 3 2 3C1.4 3 1 2.6 1 2C1 1.4 1.4 1 2 1ZM15 15H1V4H15V15Z" fill="black"/>
<path d="M2.7 14H14V11.5C14 10.6 13.5 9.8 12.8 9.3C13 9 13.1 8.6 13.1 8.2C13.1 7 12.2 6 11 6C10.4 6 9.9 6.3 9.5 6.7C9.1 6.3 8.6 6 8 6C7.4 6 6.8 6.3 6.4 6.8C6.1 6.3 5.6 6 5 6C4.1 6 3.3 6.7 3.3 7.7C3.3 8.2 3.5 8.6 3.8 8.9C4 9.1 4.1 9.3 4 9.6C4 9.8 3.8 10 3.6 10C2.7 10.2 2 11 2 12V13.3C2 13.7 2.3 14 2.7 14ZM6.2 9.3C6.1 9.4 6 9.5 5.9 9.5C5.9 9.3 5.9 9.2 6 9C6.1 9.1 6.1 9.2 6.2 9.3ZM11 7C11.6 7 12.1 7.6 12.1 8.2C12.1 8.6 12 8.9 11.7 9.1C11.6 9.2 11.5 9.4 11.6 9.6C11.7 9.8 11.8 10 12 10C12.6 10.1 13 10.7 13 11.5V13H11V11.5C11 10.6 10.5 9.8 9.8 9.3C10 9 10.1 8.6 10.1 8.2C10.1 8 10.1 7.8 10 7.6C10.2 7.3 10.6 7 11 7ZM8 7C8.6 7 9.1 7.6 9.1 8.2C9.1 8.6 9 8.9 8.7 9.1C8.6 9.3 8.6 9.5 8.6 9.7C8.6 9.9 8.8 10 9 10C9.6 10.1 10 10.7 10 11.5V13H8V12C8 11.2 7.5 10.4 6.8 10.1C6.8 10.1 6.9 10.1 7 10C7.2 10 7.3 9.8 7.3 9.6C7.3 9.4 7.3 9.2 7.2 9.1C7 8.9 6.9 8.6 6.9 8.2C6.9 7.6 7.4 7 8 7Z" fill="black"/>
</g>
<defs>
<clipPath id="clip0_7_2269">
<rect width="16" height="16" fill="white"/>
</clipPath>
</defs>
</svg>
