<svg width="16" height="16" viewBox="0 0 16 16" fill="none" xmlns="http://www.w3.org/2000/svg">
<g clip-path="url(#clip0_7_2224)">
<path d="M15 4H1V15H15V4Z" fill="#FF0000" fill-opacity="0.3"/>
<path d="M2 3C2.55228 3 3 2.55228 3 2C3 1.44772 2.55228 1 2 1C1.44772 1 1 1.44772 1 2C1 2.55228 1.44772 3 2 3Z" fill="#FF0000" fill-opacity="0.3"/>
<path d="M0 0V16H16V0H0ZM6 2C6 2.6 5.6 3 5 3C4.4 3 4 2.6 4 2C4 1.4 4.4 1 5 1C5.6 1 6 1.4 6 2ZM2 1C2.6 1 3 1.4 3 2C3 2.6 2.6 3 2 3C1.4 3 1 2.6 1 2C1 1.4 1.4 1 2 1ZM15 15H1V4H15V15Z" fill="black"/>
<path d="M6 5H2V7H6V5Z" fill="black"/>
<path d="M6 8H2V9H6V8Z" fill="black"/>
<path d="M6 10H2V11H6V10Z" fill="black"/>
<path d="M6 12H2V13H6V12Z" fill="black"/>
</g>
<defs>
<clipPath id="clip0_7_2224">
<rect width="16" height="16" fill="white"/>
</clipPath>
</defs>
</svg>
