<svg width="16" height="16" viewBox="0 0 16 16" fill="none" xmlns="http://www.w3.org/2000/svg">
<path d="M5 7C5.6 7 6 7.4 6 8C6 8.6 5.6 9 5 9C4.4 9 4 8.6 4 8C4 7.4 4.4 7 5 7ZM5 6C3.9 6 3 6.9 3 8C3 9.1 3.9 10 5 10C6.1 10 7 9.1 7 8C7 6.9 6.1 6 5 6Z" fill="#FF0000" fill-opacity="0.3"/>
<path d="M11 7C11.6 7 12 7.4 12 8C12 8.6 11.6 9 11 9C10.4 9 10 8.6 10 8C10 7.4 10.4 7 11 7ZM11 6C9.9 6 9 6.9 9 8C9 9.1 9.9 10 11 10C12.1 10 13 9.1 13 8C13 6.9 12.1 6 11 6Z" fill="#FF0000" fill-opacity="0.3"/>
<path d="M8 7C8.6 7 9 7.4 9 8C9 8.6 8.6 9 8 9C7.4 9 7 8.6 7 8C7 7.4 7.4 7 8 7ZM8 6C6.9 6 6 6.9 6 8C6 9.1 6.9 10 8 10C9.1 10 10 9.1 10 8C10 6.9 9.1 6 8 6Z" fill="#FF0000" fill-opacity="0.3"/>
<path d="M5 9C5.55228 9 6 8.55228 6 8C6 7.44772 5.55228 7 5 7C4.44772 7 4 7.44772 4 8C4 8.55228 4.44772 9 5 9Z" fill="black"/>
<path d="M11 9C11.5523 9 12 8.55228 12 8C12 7.44772 11.5523 7 11 7C10.4477 7 10 7.44772 10 8C10 8.55228 10.4477 9 11 9Z" fill="black"/>
<path d="M8 9C8.55228 9 9 8.55228 9 8C9 7.44772 8.55228 7 8 7C7.44772 7 7 7.44772 7 8C7 8.55228 7.44772 9 8 9Z" fill="black"/>
</svg>
