<svg width="16" height="16" viewBox="0 0 16 16" fill="none" xmlns="http://www.w3.org/2000/svg">
<path d="M7 11C7 10.4 7.4 10 8 10C8.6 10 9 10.4 9 11C9 11.6 8.6 12 8 12C7.4 12 7 11.6 7 11ZM6 11C6 12.1 6.9 13 8 13C9.1 13 10 12.1 10 11C10 9.9 9.1 9 8 9C6.9 9 6 9.9 6 11Z" fill="#FF0000" fill-opacity="0.3"/>
<path d="M7 5C7 4.4 7.4 4 8 4C8.6 4 9 4.4 9 5C9 5.6 8.6 6 8 6C7.4 6 7 5.6 7 5ZM6 5C6 6.1 6.9 7 8 7C9.1 7 10 6.1 10 5C10 3.9 9.1 3 8 3C6.9 3 6 3.9 6 5Z" fill="#FF0000" fill-opacity="0.3"/>
<path d="M7 8C7 7.4 7.4 7 8 7C8.6 7 9 7.4 9 8C9 8.6 8.6 9 8 9C7.4 9 7 8.6 7 8ZM6 8C6 9.1 6.9 10 8 10C9.1 10 10 9.1 10 8C10 6.9 9.1 6 8 6C6.9 6 6 6.9 6 8Z" fill="#FF0000" fill-opacity="0.3"/>
<path d="M9 11C9 10.4477 8.55228 10 8 10C7.44772 10 7 10.4477 7 11C7 11.5523 7.44772 12 8 12C8.55228 12 9 11.5523 9 11Z" fill="black"/>
<path d="M9 5C9 4.4477 8.55228 4 8 4C7.44772 4 7 4.4477 7 5C7 5.5523 7.44772 6 8 6C8.55228 6 9 5.5523 9 5Z" fill="black"/>
<path d="M9 8C9 7.44772 8.55228 7 8 7C7.44772 7 7 7.44772 7 8C7 8.55228 7.44772 9 8 9C8.55228 9 9 8.55228 9 8Z" fill="black"/>
</svg>
