<svg width="16" height="16" viewBox="0 0 16 16" fill="none" xmlns="http://www.w3.org/2000/svg">
<path d="M14 6C13.7 3.5 11.7 1.5 8.99998 1.1V0H6.99998V1.1C4.29998 1.5 2.29998 3.5 1.99998 6H0.999976V9H3.29998C3.19998 9.1 3.09998 9.1 3.09998 9.2L2.79998 9.4L2.49998 9.1L0.0999756 11.5L4.49998 15.9L6.89998 13.5H10.2L12.9 11.5C13.3 11.2 13.6 10.6 13.5 10.1C13.5 9.7 13.3 9.3 13 9.1H15V6H14ZM11.1 9L9.49998 10.1C9.39998 9.7 9.19998 9.3 8.99998 9H11.1ZM7.99998 2C10.6 2 12.7 3.8 13 6H2.99998C3.29998 3.8 5.39998 2 7.99998 2ZM12.3 10.7L9.79998 12.5H5.89998L3.49998 10.1L3.79998 9.8C4.09998 9.5 4.39998 9.4 4.79998 9.4H7.79998C8.19998 9.4 8.49998 9.7 8.49998 10.1C8.49998 10.3 8.39998 10.4 8.19998 10.4H6.99998V11.4H9.09998L11.8 9.6C11.9 9.5 12 9.5 12.1 9.6C12.3 9.7 12.4 9.9 12.4 10.1C12.4 10.3 12.4 10.5 12.3 10.7Z" fill="black"/>
</svg>
