<svg width="16" height="16" viewBox="0 0 16 16" fill="none" xmlns="http://www.w3.org/2000/svg">
<path d="M8.49649 8.00008C8.49649 7.72612 8.27441 7.50403 8.00044 7.50403C7.72648 7.50403 7.50439 7.72612 7.50439 8.00008V12.8001C7.50439 13.074 7.72648 13.2961 8.00044 13.2961C8.27441 13.2961 8.49649 13.074 8.49649 12.8001V8.00008Z" fill="black"/>
<path d="M5.47843 7.00453C5.75212 6.99236 5.98385 7.20437 5.99601 7.47806L6.19601 11.9781C6.20818 12.2518 5.99617 12.4835 5.72248 12.4956C5.44879 12.5078 5.21706 12.2958 5.20489 12.0221L5.00489 7.52211C4.99273 7.24842 5.20474 7.01669 5.47843 7.00453Z" fill="black"/>
<path d="M10.9958 7.52211C11.008 7.24842 10.796 7.01669 10.5223 7.00453C10.2486 6.99236 10.0169 7.20437 10.0047 7.47806L9.8047 11.9781C9.79253 12.2518 10.0045 12.4835 10.2782 12.4956C10.5519 12.5078 10.7837 12.2958 10.7958 12.0221L10.9958 7.52211Z" fill="black"/>
<path fill-rule="evenodd" clip-rule="evenodd" d="M2.50439 4.30008C2.50439 4.36419 2.50957 4.42654 2.51936 4.48709L3.30459 13.0265C3.31422 13.4131 3.53501 13.7227 3.79186 13.9462C4.05732 14.1773 4.41378 14.3655 4.8145 14.515C5.61992 14.8153 6.7061 14.9962 7.90031 14.9962C9.09452 14.9962 10.1807 14.8153 10.9861 14.515C11.3869 14.3655 11.7433 14.1773 12.0088 13.9462C12.2642 13.7239 12.4841 13.4164 12.4959 13.0327L13.4517 4.6212C13.4805 4.51971 13.4965 4.41262 13.4965 4.30008C13.4965 3.85054 13.242 3.48803 12.929 3.22169C12.6141 2.95365 12.1877 2.73468 11.704 2.56056C10.7324 2.2108 9.42298 2.00403 8.00044 2.00403C6.5779 2.00403 5.26844 2.2108 4.29689 2.56056C3.81322 2.73468 3.38677 2.95365 3.07185 3.22169C2.75893 3.48803 2.50439 3.85054 2.50439 4.30008ZM3.71488 3.97719C3.53866 4.12718 3.5022 4.23275 3.49717 4.28617L3.50246 4.34366C3.51748 4.40239 3.5669 4.49702 3.71488 4.62297C3.906 4.78563 4.21178 4.95453 4.63293 5.10614C5.47102 5.40786 6.66156 5.60403 8.00044 5.60403C9.33933 5.60403 10.5299 5.40786 11.368 5.10614C11.7891 4.95453 12.0949 4.78563 12.286 4.62297C12.3957 4.52958 12.4513 4.4534 12.4788 4.39632L12.4958 4.24691C12.4779 4.1877 12.4262 4.09649 12.286 3.97719C12.0949 3.81452 11.7891 3.64563 11.368 3.49401C10.5299 3.1923 9.33933 2.99613 8.00044 2.99613C6.66156 2.99613 5.47102 3.1923 4.63293 3.49401C4.21178 3.64563 3.906 3.81452 3.71488 3.97719ZM4.29428 12.9548L3.63177 5.74992C3.83536 5.85764 4.05922 5.95404 4.29689 6.0396C5.26844 6.38936 6.5779 6.59613 8.00044 6.59613C9.42298 6.59613 10.7324 6.38936 11.704 6.0396C11.9235 5.96056 12.1313 5.87228 12.3222 5.77437L11.5074 12.9442C11.5053 12.9628 11.5043 12.9815 11.5043 13.0002C11.5043 13.0002 11.5042 13.0702 11.3575 13.1979C11.2136 13.3231 10.9763 13.4598 10.6395 13.5854C9.96992 13.8351 9.0061 14.0041 7.90031 14.0041C6.79452 14.0041 5.83071 13.8351 5.16112 13.5854C4.82435 13.4598 4.58705 13.3231 4.44314 13.1979C4.29642 13.0702 4.29636 13.0002 4.29636 13.0002C4.29636 12.985 4.29567 12.9699 4.29428 12.9548Z" fill="black"/>
</svg>
