<svg width="16" height="16" viewBox="0 0 16 16" fill="none" xmlns="http://www.w3.org/2000/svg">
<path d="M13.5 4.19995C13.5 1.19995 2.5 1.19995 2.5 4.19995C2.5 4.29995 2.5 4.39995 2.5 4.49995L3.3 13C3.3 14.3 5.6 15 7.9 15C10.2 15 12.5 14.3 12.5 13L13.5 4.49995C13.5 4.39995 13.5 4.29995 13.5 4.19995ZM6.2 11.9C6.2 12.2 6 12.4 5.7 12.4C5.4 12.4 5.2 12.2 5.2 11.9L5 7.49995C5 7.29995 5.2 6.99995 5.5 6.99995C5.8 6.99995 6 7.19995 6 7.49995L6.2 11.9ZM7.5 7.89995C7.5 7.59995 7.7 7.39995 8 7.39995C8.3 7.39995 8.5 7.69995 8.5 7.89995V12.7C8.5 13 8.3 13.2 8 13.2C7.7 13.2 7.5 13 7.5 12.7V7.89995ZM9.8 11.9L10 7.49995C10 7.19995 10.3 6.99995 10.5 6.99995C10.8 6.99995 11 7.19995 11 7.49995L10.8 12C10.8 12.3 10.6 12.5 10.3 12.5C10 12.4 9.8 12.2 9.8 11.9ZM8 2.99995C10.8 2.99995 12.5 3.69995 12.5 4.19995V4.29995C12.4 4.69995 10.7 5.49995 8 5.49995C5.3 5.49995 3.6 4.69995 3.5 4.29995V4.19995C3.6 3.69995 5.3 2.99995 8 2.99995Z" fill="#3B5282"/>
</svg>
