<svg width="16" height="16" viewBox="0 0 16 16" fill="none" xmlns="http://www.w3.org/2000/svg">
<path d="M8 0H7V1H8V0Z" fill="black"/>
<path d="M8 2H7V3H8V2Z" fill="black"/>
<path d="M8 4H7V5H8V4Z" fill="black"/>
<path d="M8 6H7V7H8V6Z" fill="black"/>
<path d="M8 10H7V11H8V10Z" fill="black"/>
<path d="M8 12H7V13H8V12Z" fill="black"/>
<path d="M8 14H7V15H8V14Z" fill="black"/>
<path d="M1 7H0V8H1V7Z" fill="black"/>
<path d="M3 7H2V8H3V7Z" fill="black"/>
<path d="M5 7H4V8H5V7Z" fill="black"/>
<path d="M8 8H7V7H6V8H7V9H8V8H9V7H8V8Z" fill="black"/>
<path d="M11 7H10V8H11V7Z" fill="black"/>
<path d="M13 7H12V8H13V7Z" fill="black"/>
<path d="M15 7H14V8H15V7Z" fill="black"/>
</svg>
