<svg width="16" height="16" viewBox="0 0 16 16" fill="none" xmlns="http://www.w3.org/2000/svg">
<path d="M13 3V13H3V3H13ZM14 2H2V14H14V2Z" fill="#324B7B"/>
<path d="M5 3H4V13H5V3Z" fill="#324B7B"/>
<path d="M12 3H11V13H12V3Z" fill="#324B7B"/>
<path d="M10 8L7 6V10L10 8Z" fill="#324B7B"/>
<path d="M5 4H2V6H5V4Z" fill="#324B7B"/>
<path d="M5 7H2V9H5V7Z" fill="#324B7B"/>
<path d="M5 10H2V12H5V10Z" fill="#324B7B"/>
<path d="M14 4H11V6H14V4Z" fill="#324B7B"/>
<path d="M14 7H11V9H14V7Z" fill="#324B7B"/>
<path d="M14 10H11V12H14V10Z" fill="#324B7B"/>
</svg>
