<svg width="16" height="16" viewBox="0 0 16 16" fill="none" xmlns="http://www.w3.org/2000/svg">
<g clip-path="url(#clip0_4_51)">
<path d="M12 14H4C2.9 14 2 13.1 2 12V4C2 2.9 2.9 2 4 2H12C13.1 2 14 2.9 14 4V12C14 13.1 13.1 14 12 14Z" fill="#FF0000" fill-opacity="0.3"/>
<path d="M15.7 1.70005L14.3 0.300049L7.99999 6.60005L1.69999 0.300049L0.299988 1.70005L6.59999 8.00005L0.299988 14.3001L1.69999 15.7001L7.99999 9.40005L14.3 15.7001L15.7 14.3001L9.39999 8.00005L15.7 1.70005Z" fill="black"/>
</g>
<defs>
<clipPath id="clip0_4_51">
<rect width="16" height="16" fill="white"/>
</clipPath>
</defs>
</svg>
