<svg width="16" height="16" viewBox="0 0 16 16" fill="none" xmlns="http://www.w3.org/2000/svg">
<path d="M10.1 7.99995L14 4.09995L14.7 3.39995L14 2.69995L13.3 1.99995L12.6 1.29995L11.9 1.99995L8.00001 5.89995L4.10001 1.89995L3.40001 1.19995L2.60001 1.89995L1.90001 2.59995L1.20001 3.39995L1.90001 4.09995L5.90001 7.99995L2.00001 11.8999L1.30001 12.5999L2.00001 13.2999L2.70001 13.9999L3.40001 14.6999L4.10001 13.9999L8.00001 10.0999L11.9 13.9999L12.6 14.6999L13.3 13.9999L14 13.2999L14.7 12.5999L14 11.8999L10.1 7.99995ZM12.6 13.3999L8.00001 8.69995L3.40001 13.2999L2.70001 12.5999L7.30001 7.99995L2.60001 3.39995L3.30001 2.69995L8.00001 7.29995L12.6 2.69995L13.3 3.39995L8.70001 7.99995L13.3 12.5999L12.6 13.3999Z" fill="#FF0000" fill-opacity="0.3"/>
<path d="M13.4 3.39998L12.6 2.59998L7.99998 7.29998L3.39998 2.59998L2.59998 3.39998L7.29998 7.99998L2.59998 12.6L3.39998 13.4L7.99998 8.69998L12.6 13.4L13.4 12.6L8.69998 7.99998L13.4 3.39998Z" fill="black"/>
</svg>
